<?xml version="1.0" encoding="utf-8" standalone="no"?>
<!DOCTYPE svg PUBLIC "-//W3C//DTD SVG 1.1//EN"
  "http://www.w3.org/Graphics/SVG/1.1/DTD/svg11.dtd">
<svg xmlns:xlink="http://www.w3.org/1999/xlink" width="437.76pt" height="118.8pt" viewBox="0 0 437.76 118.8" xmlns="http://www.w3.org/2000/svg" version="1.1">
 <metadata>
  <rdf:RDF xmlns:dc="http://purl.org/dc/elements/1.1/" xmlns:cc="http://creativecommons.org/ns#" xmlns:rdf="http://www.w3.org/1999/02/22-rdf-syntax-ns#">
   <cc:Work>
    <dc:type rdf:resource="http://purl.org/dc/dcmitype/StillImage"/>
    <dc:date>2026-07-15T11:39:52.777929</dc:date>
    <dc:format>image/svg+xml</dc:format>
    <dc:creator>
     <cc:Agent>
      <dc:title>Matplotlib v3.10.7, https://matplotlib.org/</dc:title>
     </cc:Agent>
    </dc:creator>
   </cc:Work>
  </rdf:RDF>
 </metadata>
 <defs>
  <style type="text/css">*{stroke-linejoin: round; stroke-linecap: butt}</style>
 </defs>
 <g id="figure_1">
  <g id="patch_1">
   <path d="M 0 118.8
L 437.76 118.8
L 437.76 0
L 0 0
z
" style="fill: #ffffff"/>
  </g>
  <g id="axes_1">
   <g id="patch_2">
    <path d="M 11.5344 101.27376
L 102.1392 101.27376
Q 107.3664 101.27376 107.3664 99.87408
L 107.3664 17.75952
Q 107.3664 16.35984 102.1392 16.35984
L 11.5344 16.35984
Q 6.3072 16.35984 6.3072 17.75952
L 6.3072 99.87408
Q 6.3072 101.27376 11.5344 101.27376
z
" clip-path="url(#pe8b94edb29)" style="fill: #ffffff; stroke: #4e7197; stroke-width: 0.85; stroke-linejoin: miter"/>
   </g>
   <g id="patch_3">
    <path d="M 12.4056 26.39088
L 101.268 26.39088
L 101.268 19.97568
L 12.4056 19.97568
z
" clip-path="url(#pe8b94edb29)" style="fill: #e8f0f8"/>
   </g>
   <g id="patch_4">
    <path d="M 119.5632 101.27376
L 210.168 101.27376
Q 215.3952 101.27376 215.3952 99.87408
L 215.3952 17.75952
Q 215.3952 16.35984 210.168 16.35984
L 119.5632 16.35984
Q 114.336 16.35984 114.336 17.75952
L 114.336 99.87408
Q 114.336 101.27376 119.5632 101.27376
z
" clip-path="url(#pe8b94edb29)" style="fill: #ffffff; stroke: #a66d33; stroke-width: 1.35; stroke-linejoin: miter"/>
   </g>
   <g id="patch_5">
    <path d="M 120.4344 26.39088
L 209.2968 26.39088
L 209.2968 19.97568
L 120.4344 19.97568
z
" clip-path="url(#pe8b94edb29)" style="fill: #f7e7d1"/>
   </g>
   <g id="patch_6">
    <path d="M 135.8982 96.84144
L 193.833 96.84144
Q 198.189 96.84144 198.189 95.67504
L 198.189 91.476
Q 198.189 90.3096 193.833 90.3096
L 135.8982 90.3096
Q 131.5422 90.3096 131.5422 91.476
L 131.5422 95.67504
Q 131.5422 96.84144 135.8982 96.84144
z
" clip-path="url(#pe8b94edb29)" style="fill: #fff6ec; stroke: #a66d33; stroke-width: 0.75; stroke-linejoin: miter"/>
   </g>
   <g id="patch_7">
    <path d="M 227.592 101.27376
L 318.1968 101.27376
Q 323.424 101.27376 323.424 99.87408
L 323.424 17.75952
Q 323.424 16.35984 318.1968 16.35984
L 227.592 16.35984
Q 222.3648 16.35984 222.3648 17.75952
L 222.3648 99.87408
Q 222.3648 101.27376 227.592 101.27376
z
" clip-path="url(#pe8b94edb29)" style="fill: #ffffff; stroke: #5e8061; stroke-width: 0.85; stroke-linejoin: miter"/>
   </g>
   <g id="patch_8">
    <path d="M 228.4632 26.39088
L 317.3256 26.39088
L 317.3256 19.97568
L 228.4632 19.97568
z
" clip-path="url(#pe8b94edb29)" style="fill: #e8f2e7"/>
   </g>
   <g id="patch_9">
    <path d="M 335.6208 101.27376
L 426.2256 101.27376
Q 431.4528 101.27376 431.4528 99.87408
L 431.4528 17.75952
Q 431.4528 16.35984 426.2256 16.35984
L 335.6208 16.35984
Q 330.3936 16.35984 330.3936 17.75952
L 330.3936 99.87408
Q 330.3936 101.27376 335.6208 101.27376
z
" clip-path="url(#pe8b94edb29)" style="fill: #ffffff; stroke: #67547f; stroke-width: 1.35; stroke-linejoin: miter"/>
   </g>
   <g id="patch_10">
    <path d="M 336.492 26.39088
L 425.3544 26.39088
L 425.3544 19.97568
L 336.492 19.97568
z
" clip-path="url(#pe8b94edb29)" style="fill: #ece6f3"/>
   </g>
   <g id="patch_11">
    <path d="M 351.9558 96.84144
L 409.8906 96.84144
Q 414.2466 96.84144 414.2466 95.67504
L 414.2466 91.476
Q 414.2466 90.3096 409.8906 90.3096
L 351.9558 90.3096
Q 347.5998 90.3096 347.5998 91.476
L 347.5998 95.67504
Q 347.5998 96.84144 351.9558 96.84144
z
" clip-path="url(#pe8b94edb29)" style="fill: #f7f4fa; stroke: #67547f; stroke-width: 0.75; stroke-linejoin: miter"/>
   </g>
   <g id="patch_12">
    <path d="M 109.98 57.0672
Q 110.8512 57.0672 110.660268 57.0672
" clip-path="url(#pe8b94edb29)" style="fill: none; stroke: #5a5a5a; stroke-width: 0.95; stroke-linecap: round"/>
    <path d="M 107.460268 55.4672
L 110.660268 57.0672
L 107.460268 58.6672
z
" clip-path="url(#pe8b94edb29)" style="fill: #5a5a5a; stroke: #5a5a5a; stroke-width: 0.95; stroke-linecap: round"/>
   </g>
   <g id="patch_13">
    <path d="M 218.0088 57.0672
Q 218.88 57.0672 218.689068 57.0672
" clip-path="url(#pe8b94edb29)" style="fill: none; stroke: #5a5a5a; stroke-width: 0.95; stroke-linecap: round"/>
    <path d="M 215.489068 55.4672
L 218.689068 57.0672
L 215.489068 58.6672
z
" clip-path="url(#pe8b94edb29)" style="fill: #5a5a5a; stroke: #5a5a5a; stroke-width: 0.95; stroke-linecap: round"/>
   </g>
   <g id="patch_14">
    <path d="M 326.0376 57.0672
Q 326.9088 57.0672 326.717868 57.0672
" clip-path="url(#pe8b94edb29)" style="fill: none; stroke: #5a5a5a; stroke-width: 0.95; stroke-linecap: round"/>
    <path d="M 323.517868 55.4672
L 326.717868 57.0672
L 323.517868 58.6672
z
" clip-path="url(#pe8b94edb29)" style="fill: #5a5a5a; stroke: #5a5a5a; stroke-width: 0.95; stroke-linecap: round"/>
   </g>
   <g id="patch_15">
    <path d="M 21.9888 66.04848
L 50.5206 66.04848
Q 55.3122 66.04848 55.3122 64.76544
L 55.3122 58.2336
Q 55.3122 56.95056 50.5206 56.95056
L 21.9888 56.95056
Q 17.1972 56.95056 17.1972 58.2336
L 17.1972 64.76544
Q 17.1972 66.04848 21.9888 66.04848
z
" clip-path="url(#pe8b94edb29)" style="fill: #f4f8fc; stroke: #4e7197; stroke-width: 0.7; stroke-linejoin: miter"/>
   </g>
   <g id="patch_16">
    <path d="M 63.153 66.04848
L 91.6848 66.04848
Q 96.4764 66.04848 96.4764 64.76544
L 96.4764 58.2336
Q 96.4764 56.95056 91.6848 56.95056
L 63.153 56.95056
Q 58.3614 56.95056 58.3614 58.2336
L 58.3614 64.76544
Q 58.3614 66.04848 63.153 66.04848
z
" clip-path="url(#pe8b94edb29)" style="fill: #f4f8fc; stroke: #4e7197; stroke-width: 0.7; stroke-linejoin: miter"/>
   </g>
   <g id="patch_17">
    <path d="M 21.9888 76.77936
L 50.5206 76.77936
Q 55.3122 76.77936 55.3122 75.49632
L 55.3122 68.96448
Q 55.3122 67.68144 50.5206 67.68144
L 21.9888 67.68144
Q 17.1972 67.68144 17.1972 68.96448
L 17.1972 75.49632
Q 17.1972 76.77936 21.9888 76.77936
z
" clip-path="url(#pe8b94edb29)" style="fill: #f4f8fc; stroke: #4e7197; stroke-width: 0.7; stroke-linejoin: miter"/>
   </g>
   <g id="patch_18">
    <path d="M 63.153 76.77936
L 91.6848 76.77936
Q 96.4764 76.77936 96.4764 75.49632
L 96.4764 68.96448
Q 96.4764 67.68144 91.6848 67.68144
L 63.153 67.68144
Q 58.3614 67.68144 58.3614 68.96448
L 58.3614 75.49632
Q 58.3614 76.77936 63.153 76.77936
z
" clip-path="url(#pe8b94edb29)" style="fill: #f4f8fc; stroke: #4e7197; stroke-width: 0.7; stroke-linejoin: miter"/>
   </g>
   <g id="patch_19">
    <path d="M 235.4328 78.87888
L 273.643632 78.87888
L 273.643632 72.46368
L 235.4328 72.46368
z
" clip-path="url(#pe8b94edb29)" style="fill: #e8f2e7; stroke: #5e8061; stroke-width: 0.7; stroke-linejoin: miter"/>
   </g>
   <g id="patch_20">
    <path d="M 273.643632 78.87888
L 290.126736 78.87888
L 290.126736 72.46368
L 273.643632 72.46368
z
" clip-path="url(#pe8b94edb29)" style="fill: #ffffff; stroke: #5e8061; stroke-width: 0.7; stroke-linejoin: miter"/>
   </g>
   <g id="patch_21">
    <path d="M 290.126736 78.87888
L 310.356 78.87888
L 310.356 72.46368
L 290.126736 72.46368
z
" clip-path="url(#pe8b94edb29)" style="fill: #ffffff; stroke: #5e8061; stroke-width: 0.7; stroke-linejoin: miter"/>
   </g>
   <g id="text_1">
    <text style="font-weight: 600; font-size: 9px; font-family: 'DejaVu Sans'; fill: #202020" transform="translate(25.139222 28.2788)">Multi-source</text>
    <text style="font-weight: 600; font-size: 9px; font-family: 'DejaVu Sans'; fill: #202020" transform="translate(22.483519 37.331042)">urban signals</text>
   </g>
   <g id="text_2">
    <text style="font-weight: 600; font-size: 9px; font-family: 'DejaVu Sans'; fill: #202020" transform="translate(131.01435 28.2788)">Leakage-safe</text>
    <text style="font-weight: 600; font-size: 9px; font-family: 'DejaVu Sans'; fill: #202020" transform="translate(150.809428 37.401355)">panel</text>
   </g>
   <g id="text_3">
    <text style="font-weight: 600; font-size: 6.25px; font-family: 'DejaVu Sans'; text-anchor: middle; fill: #a66d33" x="164.8656" y="95.275715" transform="rotate(-0 164.8656 95.275715)">t -&gt; t+1 design</text>
   </g>
   <g id="text_4">
    <text style="font-weight: 600; font-size: 9px; font-family: 'DejaVu Sans'; fill: #202020" transform="translate(242.986978 28.313956)">Prospective</text>
    <text style="font-weight: 600; font-size: 9px; font-family: 'DejaVu Sans'; fill: #202020" transform="translate(246.100416 37.366199)">evaluation</text>
   </g>
   <g id="text_5">
    <text style="font-weight: 600; font-size: 9px; font-family: 'DejaVu Sans'; fill: #202020" transform="translate(330.6582 28.2788)">Category calibrated</text>
    <text style="font-weight: 600; font-size: 9px; font-family: 'DejaVu Sans'; fill: #202020" transform="translate(366.243356 37.401355)">alerts</text>
   </g>
   <g id="text_6">
    <text style="font-weight: 600; font-size: 6.25px; font-family: 'DejaVu Sans'; text-anchor: middle; fill: #67547f" x="380.9232" y="95.275715" transform="rotate(-0 380.9232 95.275715)">validation only</text>
   </g>
   <g id="text_7">
    <text style="font-size: 7.7px; font-family: 'DejaVu Sans'; text-anchor: middle; fill: #202020" x="36.2547" y="63.624239" transform="rotate(-0 36.2547 63.624239)">311</text>
   </g>
   <g id="text_8">
    <text style="font-size: 7.7px; font-family: 'DejaVu Sans'; text-anchor: middle; fill: #202020" x="77.4189" y="63.624239" transform="rotate(-0 77.4189 63.624239)">Weather</text>
   </g>
   <g id="text_9">
    <text style="font-size: 7.7px; font-family: 'DejaVu Sans'; text-anchor: middle; fill: #202020" x="36.2547" y="74.355119" transform="rotate(-0 36.2547 74.355119)">POI</text>
   </g>
   <g id="text_10">
    <text style="font-size: 7.7px; font-family: 'DejaVu Sans'; text-anchor: middle; fill: #202020" x="77.4189" y="74.355119" transform="rotate(-0 77.4189 74.355119)">Land use</text>
   </g>
   <g id="text_11">
    <text style="font-size: 6.4px; font-family: 'DejaVu Sans'; text-anchor: middle; fill: #555555" x="56.8368" y="86.2436" transform="rotate(-0 56.8368 86.2436)">multi-source context</text>
   </g>
   <g id="text_12">
    <text style="font-size: 8px; font-family: 'DejaVu Sans'; text-anchor: middle; fill: #202020" x="164.8656" y="63.12382" transform="rotate(-0 164.8656 63.12382)">NTA x Week x Category</text>
   </g>
   <g id="text_13">
    <text style="font-weight: 600; font-size: 8px; font-family: 'DejaVu Sans'; fill: #202020" transform="translate(139.2181 69.065062)">History at t</text>
    <text style="font-weight: 600; font-size: 8px; font-family: 'DejaVu Sans'; fill: #202020" transform="translate(130.2056 77.477937)">-&gt; Event at t+1</text>
   </g>
   <g id="text_14">
    <text style="font-size: 6.4px; font-family: 'DejaVu Sans'; text-anchor: middle; fill: #555555" x="164.8656" y="85.6604" transform="rotate(-0 164.8656 85.6604)">shifted temporal features</text>
   </g>
   <g id="text_15">
    <text style="font-weight: 600; font-size: 8px; font-family: 'DejaVu Sans'; text-anchor: middle; fill: #202020" x="272.8944" y="63.09257" transform="rotate(-0 272.8944 63.09257)">LightGBM + XGBoost</text>
   </g>
   <g id="text_16">
    <text style="font-size: 6.4px; font-family: 'DejaVu Sans'; text-anchor: middle; fill: #202020" x="254.538216" y="68.33332" transform="rotate(-0 254.538216 68.33332)">2015-22</text>
   </g>
   <g id="text_17">
    <text style="font-size: 6.4px; font-family: 'DejaVu Sans'; text-anchor: middle; fill: #555555" x="254.538216" y="86.30796" transform="rotate(-0 254.538216 86.30796)">Train</text>
   </g>
   <g id="text_18">
    <text style="font-size: 6.4px; font-family: 'DejaVu Sans'; text-anchor: middle; fill: #202020" x="281.885184" y="68.33332" transform="rotate(-0 281.885184 68.33332)">2023</text>
   </g>
   <g id="text_19">
    <text style="font-size: 6.4px; font-family: 'DejaVu Sans'; text-anchor: middle; fill: #555555" x="281.885184" y="86.30796" transform="rotate(-0 281.885184 86.30796)">Val.</text>
   </g>
   <g id="text_20">
    <text style="font-size: 6.4px; font-family: 'DejaVu Sans'; text-anchor: middle; fill: #202020" x="300.241368" y="68.33332" transform="rotate(-0 300.241368 68.33332)">2024-25</text>
   </g>
   <g id="text_21">
    <text style="font-size: 6.4px; font-family: 'DejaVu Sans'; text-anchor: middle; fill: #555555" x="300.241368" y="86.30796" transform="rotate(-0 300.241368 86.30796)">Test</text>
   </g>
   <g id="text_22">
    <text style="font-size: 8px; font-family: 'DejaVu Sans'; fill: #202020" transform="translate(349.290075 58.948632)">Ensemble score</text>
    <text style="font-size: 8px; font-family: 'DejaVu Sans'; fill: #202020" transform="translate(340.421325 67.299007)">-&gt; service threshold</text>
   </g>
   <g id="text_23">
    <text style="font-weight: 600; font-size: 8px; font-family: 'DejaVu Sans'; text-anchor: middle; fill: #202020" x="380.9232" y="75.6043" transform="rotate(-0 380.9232 75.6043)">risk alerts</text>
   </g>
   <g id="text_24">
    <text style="font-size: 6.4px; font-family: 'DejaVu Sans'; text-anchor: middle; fill: #555555" x="380.9232" y="85.0772" transform="rotate(-0 380.9232 85.0772)">+ SHAP review</text>
   </g>
  </g>
 </g>
 <defs>
  <clipPath id="pe8b94edb29">
   <rect x="1.08" y="1.08" width="435.6" height="116.64"/>
  </clipPath>
 </defs>
</svg>
