<?xml version="1.0" encoding="utf-8" standalone="no"?>
<!DOCTYPE svg PUBLIC "-//W3C//DTD SVG 1.1//EN"
  "http://www.w3.org/Graphics/SVG/1.1/DTD/svg11.dtd">
<svg xmlns:xlink="http://www.w3.org/1999/xlink" width="495.79896pt" height="190.2pt" viewBox="0 0 495.79896 190.2" xmlns="http://www.w3.org/2000/svg" version="1.1">
 <metadata>
  <rdf:RDF xmlns:dc="http://purl.org/dc/elements/1.1/" xmlns:cc="http://creativecommons.org/ns#" xmlns:rdf="http://www.w3.org/1999/02/22-rdf-syntax-ns#">
   <cc:Work>
    <dc:type rdf:resource="http://purl.org/dc/dcmitype/StillImage"/>
    <dc:date>2026-07-15T15:05:07.533970</dc:date>
    <dc:format>image/svg+xml</dc:format>
    <dc:creator>
     <cc:Agent>
      <dc:title>Matplotlib v3.11.0, https://matplotlib.org/</dc:title>
     </cc:Agent>
    </dc:creator>
   </cc:Work>
  </rdf:RDF>
 </metadata>
 <defs>
  <style type="text/css">*{stroke-linejoin: round; stroke-linecap: butt}</style>
 </defs>
 <g id="figure_1">
  <g id="patch_1">
   <path d="M 0 190.2
L 495.79896 190.2
L 495.79896 0
L 0 0
z
" style="fill: #ffffff"/>
  </g>
  <g id="axes_1">
   <g id="patch_2">
    <path d="M 16.68356 119.833241
L 113.252191 119.833241
Q 114.937087 119.833241 114.937087 117.711517
L 114.937087 21.567103
Q 114.937087 19.445379 113.252191 19.445379
L 16.68356 19.445379
Q 14.998663 19.445379 14.998663 21.567103
L 14.998663 117.711517
Q 14.998663 119.833241 16.68356 119.833241
z
" clip-path="url(#p7fab7ed902)" style="fill: #fbfbfb; stroke: #2f5f9f; stroke-width: 1.2; stroke-linejoin: miter"/>
   </g>
   <g id="patch_3">
    <path d="M 140.403092 119.833241
L 236.971724 119.833241
Q 238.65662 119.833241 238.65662 117.711517
L 238.65662 21.567103
Q 238.65662 19.445379 236.971724 19.445379
L 140.403092 19.445379
Q 138.718196 19.445379 138.718196 21.567103
L 138.718196 117.711517
Q 138.718196 119.833241 140.403092 119.833241
z
" clip-path="url(#p7fab7ed902)" style="fill: #fbfbfb; stroke: #c65d12; stroke-width: 1.2; stroke-linejoin: miter"/>
   </g>
   <g id="patch_4">
    <path d="M 149.982932 112.195034
L 227.391884 112.195034
Q 228.739801 112.195034 228.739801 110.497655
L 228.739801 98.494759
Q 228.739801 96.797379 227.391884 96.797379
L 149.982932 96.797379
Q 148.635014 96.797379 148.635014 98.494759
L 148.635014 110.497655
Q 148.635014 112.195034 149.982932 112.195034
z
" clip-path="url(#p7fab7ed902)" style="fill: #ffffff; stroke: #c65d12; stroke-linejoin: miter"/>
   </g>
   <g id="patch_5">
    <path d="M 264.122625 119.833241
L 360.691256 119.833241
Q 362.376153 119.833241 362.376153 117.711517
L 362.376153 21.567103
Q 362.376153 19.445379 360.691256 19.445379
L 264.122625 19.445379
Q 262.437729 19.445379 262.437729 21.567103
L 262.437729 117.711517
Q 262.437729 119.833241 264.122625 119.833241
z
" clip-path="url(#p7fab7ed902)" style="fill: #fbfbfb; stroke: #3f7f3a; stroke-width: 1.2; stroke-linejoin: miter"/>
   </g>
   <g id="patch_6">
    <path d="M 387.842158 119.833241
L 484.410789 119.833241
Q 486.095685 119.833241 486.095685 117.711517
L 486.095685 21.567103
Q 486.095685 19.445379 484.410789 19.445379
L 387.842158 19.445379
Q 386.157261 19.445379 386.157261 21.567103
L 386.157261 117.711517
Q 386.157261 119.833241 387.842158 119.833241
z
" clip-path="url(#p7fab7ed902)" style="fill: #fbfbfb; stroke: #6a4c93; stroke-width: 1.2; stroke-linejoin: miter"/>
   </g>
   <g id="patch_7">
    <path d="M 397.421997 112.195034
L 474.83095 112.195034
Q 476.178867 112.195034 476.178867 110.497655
L 476.178867 98.494759
Q 476.178867 96.797379 474.83095 96.797379
L 397.421997 96.797379
Q 396.07408 96.797379 396.07408 98.494759
L 396.07408 110.497655
Q 396.07408 112.195034 397.421997 112.195034
z
" clip-path="url(#p7fab7ed902)" style="fill: #ffffff; stroke: #6a4c93; stroke-linejoin: miter"/>
   </g>
   <g id="patch_8">
    <path d="M 118.475558 69.63931
Q 126.103865 69.63931 132.111022 69.63931
" clip-path="url(#p7fab7ed902)" style="fill: none; stroke: #5f5f5f; stroke-width: 1.45; stroke-linecap: round"/>
    <path d="M 127.311022 67.23931
L 132.111022 69.63931
L 127.311022 72.03931
z
" clip-path="url(#p7fab7ed902)" style="fill: #5f5f5f; stroke: #5f5f5f; stroke-width: 1.45; stroke-linecap: round"/>
   </g>
   <g id="patch_9">
    <path d="M 242.19509 69.63931
Q 249.823397 69.63931 255.830555 69.63931
" clip-path="url(#p7fab7ed902)" style="fill: none; stroke: #5f5f5f; stroke-width: 1.45; stroke-linecap: round"/>
    <path d="M 251.030555 67.23931
L 255.830555 69.63931
L 251.030555 72.03931
z
" clip-path="url(#p7fab7ed902)" style="fill: #5f5f5f; stroke: #5f5f5f; stroke-width: 1.45; stroke-linecap: round"/>
   </g>
   <g id="patch_10">
    <path d="M 365.914623 69.63931
Q 373.54293 69.63931 379.550088 69.63931
" clip-path="url(#p7fab7ed902)" style="fill: none; stroke: #5f5f5f; stroke-width: 1.45; stroke-linecap: round"/>
    <path d="M 374.750088 67.23931
L 379.550088 69.63931
L 374.750088 72.03931
z
" clip-path="url(#p7fab7ed902)" style="fill: #5f5f5f; stroke: #5f5f5f; stroke-width: 1.45; stroke-linecap: round"/>
   </g>
   <g id="patch_11">
    <path d="M 113.107771 173.30069
L 393.281966 173.30069
Q 395.207562 173.30069 395.207562 170.875862
L 395.207562 140.565517
Q 395.207562 138.14069 393.281966 138.14069
L 113.107771 138.14069
Q 111.182175 138.14069 111.182175 140.565517
L 111.182175 170.875862
Q 111.182175 173.30069 113.107771 173.30069
z
" clip-path="url(#p7fab7ed902)" style="fill: #ffffff; stroke-dasharray: 3.7,1.6; stroke-dashoffset: 0; stroke: #6a6a6a; stroke-linejoin: miter"/>
   </g>
   <g id="text_1">
    <!-- Forecast-available -->
    <g transform="translate(19.920227 37.353624) scale(0.087 -0.087)">
     <defs>
      <path id="DejaVuSans-Bold-29" d="M 588 4666
L 3834 4666
L 3834 3756
L 1791 3756
L 1791 2888
L 3713 2888
L 3713 1978
L 1791 1978
L 1791 0
L 588 0
L 588 4666
z
" transform="scale(0.015625)"/>
      <path id="DejaVuSans-Bold-52" d="M 2203 2784
Q 1831 2784 1636 2517
Q 1441 2250 1441 1747
Q 1441 1244 1636 976
Q 1831 709 2203 709
Q 2569 709 2762 976
Q 2956 1244 2956 1747
Q 2956 2250 2762 2517
Q 2569 2784 2203 2784
z
M 2203 3584
Q 3106 3584 3614 3096
Q 4122 2609 4122 1747
Q 4122 884 3614 396
Q 3106 -91 2203 -91
Q 1297 -91 786 396
Q 275 884 275 1747
Q 275 2609 786 3096
Q 1297 3584 2203 3584
z
" transform="scale(0.015625)"/>
      <path id="DejaVuSans-Bold-55" d="M 3138 2547
Q 2991 2616 2845 2648
Q 2700 2681 2553 2681
Q 2122 2681 1889 2404
Q 1656 2128 1656 1613
L 1656 0
L 538 0
L 538 3500
L 1656 3500
L 1656 2925
Q 1872 3269 2151 3426
Q 2431 3584 2822 3584
Q 2878 3584 2943 3579
Q 3009 3575 3134 3559
L 3138 2547
z
" transform="scale(0.015625)"/>
      <path id="DejaVuSans-Bold-48" d="M 4031 1759
L 4031 1441
L 1416 1441
Q 1456 1047 1700 850
Q 1944 653 2381 653
Q 2734 653 3104 758
Q 3475 863 3866 1075
L 3866 213
Q 3469 63 3072 -14
Q 2675 -91 2278 -91
Q 1328 -91 801 392
Q 275 875 275 1747
Q 275 2603 792 3093
Q 1309 3584 2216 3584
Q 3041 3584 3536 3087
Q 4031 2591 4031 1759
z
M 2881 2131
Q 2881 2450 2695 2645
Q 2509 2841 2209 2841
Q 1884 2841 1681 2658
Q 1478 2475 1428 2131
L 2881 2131
z
" transform="scale(0.015625)"/>
      <path id="DejaVuSans-Bold-46" d="M 3366 3391
L 3366 2478
Q 3138 2634 2908 2709
Q 2678 2784 2431 2784
Q 1963 2784 1702 2511
Q 1441 2238 1441 1747
Q 1441 1256 1702 982
Q 1963 709 2431 709
Q 2694 709 2930 787
Q 3166 866 3366 1019
L 3366 103
Q 3103 6 2833 -42
Q 2563 -91 2291 -91
Q 1344 -91 809 395
Q 275 881 275 1747
Q 275 2613 809 3098
Q 1344 3584 2291 3584
Q 2566 3584 2833 3536
Q 3100 3488 3366 3391
z
" transform="scale(0.015625)"/>
      <path id="DejaVuSans-Bold-44" d="M 2106 1575
Q 1756 1575 1579 1456
Q 1403 1338 1403 1106
Q 1403 894 1545 773
Q 1688 653 1941 653
Q 2256 653 2472 879
Q 2688 1106 2688 1447
L 2688 1575
L 2106 1575
z
M 3816 1997
L 3816 0
L 2688 0
L 2688 519
Q 2463 200 2181 54
Q 1900 -91 1497 -91
Q 953 -91 614 226
Q 275 544 275 1050
Q 275 1666 698 1953
Q 1122 2241 2028 2241
L 2688 2241
L 2688 2328
Q 2688 2594 2478 2717
Q 2269 2841 1825 2841
Q 1466 2841 1156 2769
Q 847 2697 581 2553
L 581 3406
Q 941 3494 1303 3539
Q 1666 3584 2028 3584
Q 2975 3584 3395 3211
Q 3816 2838 3816 1997
z
" transform="scale(0.015625)"/>
      <path id="DejaVuSans-Bold-56" d="M 3272 3391
L 3272 2541
Q 2913 2691 2578 2766
Q 2244 2841 1947 2841
Q 1628 2841 1473 2761
Q 1319 2681 1319 2516
Q 1319 2381 1436 2309
Q 1553 2238 1856 2203
L 2053 2175
Q 2913 2066 3209 1816
Q 3506 1566 3506 1031
Q 3506 472 3093 190
Q 2681 -91 1863 -91
Q 1516 -91 1145 -36
Q 775 19 384 128
L 384 978
Q 719 816 1070 734
Q 1422 653 1784 653
Q 2113 653 2278 743
Q 2444 834 2444 1013
Q 2444 1163 2330 1236
Q 2216 1309 1875 1350
L 1678 1375
Q 931 1469 631 1722
Q 331 1975 331 2491
Q 331 3047 712 3315
Q 1094 3584 1881 3584
Q 2191 3584 2531 3537
Q 2872 3491 3272 3391
z
" transform="scale(0.015625)"/>
      <path id="DejaVuSans-Bold-57" d="M 1759 4494
L 1759 3500
L 2913 3500
L 2913 2700
L 1759 2700
L 1759 1216
Q 1759 972 1856 886
Q 1953 800 2241 800
L 2816 800
L 2816 0
L 1856 0
Q 1194 0 917 276
Q 641 553 641 1216
L 641 2700
L 84 2700
L 84 3500
L 641 3500
L 641 4494
L 1759 4494
z
" transform="scale(0.015625)"/>
      <path id="DejaVuSans-Bold-10" d="M 347 2297
L 2309 2297
L 2309 1388
L 347 1388
L 347 2297
z
" transform="scale(0.015625)"/>
      <path id="DejaVuSans-Bold-59" d="M 97 3500
L 1216 3500
L 2088 1081
L 2956 3500
L 4078 3500
L 2700 0
L 1472 0
L 97 3500
z
" transform="scale(0.015625)"/>
      <path id="DejaVuSans-Bold-4c" d="M 538 3500
L 1656 3500
L 1656 0
L 538 0
L 538 3500
z
M 538 4863
L 1656 4863
L 1656 3950
L 538 3950
L 538 4863
z
" transform="scale(0.015625)"/>
      <path id="DejaVuSans-Bold-4f" d="M 538 4863
L 1656 4863
L 1656 0
L 538 0
L 538 4863
z
" transform="scale(0.015625)"/>
      <path id="DejaVuSans-Bold-45" d="M 2400 722
Q 2759 722 2948 984
Q 3138 1247 3138 1747
Q 3138 2247 2948 2509
Q 2759 2772 2400 2772
Q 2041 2772 1848 2508
Q 1656 2244 1656 1747
Q 1656 1250 1848 986
Q 2041 722 2400 722
z
M 1656 2988
Q 1888 3294 2169 3439
Q 2450 3584 2816 3584
Q 3463 3584 3878 3070
Q 4294 2556 4294 1747
Q 4294 938 3878 423
Q 3463 -91 2816 -91
Q 2450 -91 2169 54
Q 1888 200 1656 506
L 1656 0
L 538 0
L 538 4863
L 1656 4863
L 1656 2988
z
" transform="scale(0.015625)"/>
     </defs>
     <use xlink:href="#DejaVuSans-Bold-29"/>
     <use xlink:href="#DejaVuSans-Bold-52" transform="translate(64.265625 0)"/>
     <use xlink:href="#DejaVuSans-Bold-55" transform="translate(132.96875 0)"/>
     <use xlink:href="#DejaVuSans-Bold-48" transform="translate(182.28125 0)"/>
     <use xlink:href="#DejaVuSans-Bold-46" transform="translate(250.109375 0)"/>
     <use xlink:href="#DejaVuSans-Bold-44" transform="translate(309.390625 0)"/>
     <use xlink:href="#DejaVuSans-Bold-56" transform="translate(376.875 0)"/>
     <use xlink:href="#DejaVuSans-Bold-57" transform="translate(436.390625 0)"/>
     <use xlink:href="#DejaVuSans-Bold-10" transform="translate(484.1875 0)"/>
     <use xlink:href="#DejaVuSans-Bold-44" transform="translate(525.6875 0)"/>
     <use xlink:href="#DejaVuSans-Bold-59" transform="translate(593.171875 0)"/>
     <use xlink:href="#DejaVuSans-Bold-44" transform="translate(658.359375 0)"/>
     <use xlink:href="#DejaVuSans-Bold-4c" transform="translate(725.84375 0)"/>
     <use xlink:href="#DejaVuSans-Bold-4f" transform="translate(760.125 0)"/>
     <use xlink:href="#DejaVuSans-Bold-44" transform="translate(794.40625 0)"/>
     <use xlink:href="#DejaVuSans-Bold-45" transform="translate(861.890625 0)"/>
     <use xlink:href="#DejaVuSans-Bold-4f" transform="translate(933.46875 0)"/>
     <use xlink:href="#DejaVuSans-Bold-48" transform="translate(967.75 0)"/>
    </g>
    <!-- signals -->
    <g transform="translate(47.661672 45.437827) scale(0.087 -0.087)">
     <defs>
      <path id="DejaVuSans-Bold-4a" d="M 2919 594
Q 2688 288 2409 144
Q 2131 0 1766 0
Q 1125 0 706 504
Q 288 1009 288 1791
Q 288 2575 706 3076
Q 1125 3578 1766 3578
Q 2131 3578 2409 3434
Q 2688 3291 2919 2981
L 2919 3500
L 4044 3500
L 4044 353
Q 4044 -491 3511 -936
Q 2978 -1381 1966 -1381
Q 1638 -1381 1331 -1331
Q 1025 -1281 716 -1178
L 716 -306
Q 1009 -475 1290 -558
Q 1572 -641 1856 -641
Q 2406 -641 2662 -400
Q 2919 -159 2919 353
L 2919 594
z
M 2181 2772
Q 1834 2772 1640 2515
Q 1447 2259 1447 1791
Q 1447 1309 1634 1061
Q 1822 813 2181 813
Q 2531 813 2725 1069
Q 2919 1325 2919 1791
Q 2919 2259 2725 2515
Q 2531 2772 2181 2772
z
" transform="scale(0.015625)"/>
      <path id="DejaVuSans-Bold-51" d="M 4056 2131
L 4056 0
L 2931 0
L 2931 347
L 2931 1631
Q 2931 2084 2911 2256
Q 2891 2428 2841 2509
Q 2775 2619 2662 2680
Q 2550 2741 2406 2741
Q 2056 2741 1856 2470
Q 1656 2200 1656 1722
L 1656 0
L 538 0
L 538 3500
L 1656 3500
L 1656 2988
Q 1909 3294 2193 3439
Q 2478 3584 2822 3584
Q 3428 3584 3742 3212
Q 4056 2841 4056 2131
z
" transform="scale(0.015625)"/>
     </defs>
     <use xlink:href="#DejaVuSans-Bold-56"/>
     <use xlink:href="#DejaVuSans-Bold-4c" transform="translate(59.515625 0)"/>
     <use xlink:href="#DejaVuSans-Bold-4a" transform="translate(93.796875 0)"/>
     <use xlink:href="#DejaVuSans-Bold-51" transform="translate(165.375 0)"/>
     <use xlink:href="#DejaVuSans-Bold-44" transform="translate(236.5625 0)"/>
     <use xlink:href="#DejaVuSans-Bold-4f" transform="translate(304.046875 0)"/>
     <use xlink:href="#DejaVuSans-Bold-56" transform="translate(338.328125 0)"/>
    </g>
   </g>
   <g id="text_2">
    <!-- 311 history + calendar -->
    <g style="fill: #1f1f1f" transform="translate(24.760531 69.502355) scale(0.07 -0.07)">
     <defs>
      <path id="DejaVuSans-16" d="M 2597 2516
Q 3050 2419 3304 2112
Q 3559 1806 3559 1356
Q 3559 666 3084 287
Q 2609 -91 1734 -91
Q 1441 -91 1130 -33
Q 819 25 488 141
L 488 750
Q 750 597 1062 519
Q 1375 441 1716 441
Q 2309 441 2620 675
Q 2931 909 2931 1356
Q 2931 1769 2642 2001
Q 2353 2234 1838 2234
L 1294 2234
L 1294 2753
L 1863 2753
Q 2328 2753 2575 2939
Q 2822 3125 2822 3475
Q 2822 3834 2567 4026
Q 2313 4219 1838 4219
Q 1578 4219 1281 4162
Q 984 4106 628 3988
L 628 4550
Q 988 4650 1302 4700
Q 1616 4750 1894 4750
Q 2613 4750 3031 4423
Q 3450 4097 3450 3541
Q 3450 3153 3228 2886
Q 3006 2619 2597 2516
z
" transform="scale(0.015625)"/>
      <path id="DejaVuSans-14" d="M 794 531
L 1825 531
L 1825 4091
L 703 3866
L 703 4441
L 1819 4666
L 2450 4666
L 2450 531
L 3481 531
L 3481 0
L 794 0
L 794 531
z
" transform="scale(0.015625)"/>
      <path id="DejaVuSans-3" transform="scale(0.015625)"/>
      <path id="DejaVuSans-4b" d="M 3513 2113
L 3513 0
L 2938 0
L 2938 2094
Q 2938 2591 2744 2837
Q 2550 3084 2163 3084
Q 1697 3084 1428 2787
Q 1159 2491 1159 1978
L 1159 0
L 581 0
L 581 4863
L 1159 4863
L 1159 2956
Q 1366 3272 1645 3428
Q 1925 3584 2291 3584
Q 2894 3584 3203 3211
Q 3513 2838 3513 2113
z
" transform="scale(0.015625)"/>
      <path id="DejaVuSans-4c" d="M 603 3500
L 1178 3500
L 1178 0
L 603 0
L 603 3500
z
M 603 4863
L 1178 4863
L 1178 4134
L 603 4134
L 603 4863
z
" transform="scale(0.015625)"/>
      <path id="DejaVuSans-56" d="M 2834 3397
L 2834 2853
Q 2591 2978 2328 3040
Q 2066 3103 1784 3103
Q 1356 3103 1142 2972
Q 928 2841 928 2578
Q 928 2378 1081 2264
Q 1234 2150 1697 2047
L 1894 2003
Q 2506 1872 2764 1633
Q 3022 1394 3022 966
Q 3022 478 2636 193
Q 2250 -91 1575 -91
Q 1294 -91 989 -36
Q 684 19 347 128
L 347 722
Q 666 556 975 473
Q 1284 391 1588 391
Q 1994 391 2212 530
Q 2431 669 2431 922
Q 2431 1156 2273 1281
Q 2116 1406 1581 1522
L 1381 1569
Q 847 1681 609 1914
Q 372 2147 372 2553
Q 372 3047 722 3315
Q 1072 3584 1716 3584
Q 2034 3584 2315 3537
Q 2597 3491 2834 3397
z
" transform="scale(0.015625)"/>
      <path id="DejaVuSans-57" d="M 1172 4494
L 1172 3500
L 2356 3500
L 2356 3053
L 1172 3053
L 1172 1153
Q 1172 725 1289 603
Q 1406 481 1766 481
L 2356 481
L 2356 0
L 1766 0
Q 1100 0 847 248
Q 594 497 594 1153
L 594 3053
L 172 3053
L 172 3500
L 594 3500
L 594 4494
L 1172 4494
z
" transform="scale(0.015625)"/>
      <path id="DejaVuSans-52" d="M 1959 3097
Q 1497 3097 1228 2736
Q 959 2375 959 1747
Q 959 1119 1226 758
Q 1494 397 1959 397
Q 2419 397 2687 759
Q 2956 1122 2956 1747
Q 2956 2369 2687 2733
Q 2419 3097 1959 3097
z
M 1959 3584
Q 2709 3584 3137 3096
Q 3566 2609 3566 1747
Q 3566 888 3137 398
Q 2709 -91 1959 -91
Q 1206 -91 779 398
Q 353 888 353 1747
Q 353 2609 779 3096
Q 1206 3584 1959 3584
z
" transform="scale(0.015625)"/>
      <path id="DejaVuSans-55" d="M 2631 2963
Q 2534 3019 2420 3045
Q 2306 3072 2169 3072
Q 1681 3072 1420 2755
Q 1159 2438 1159 1844
L 1159 0
L 581 0
L 581 3500
L 1159 3500
L 1159 2956
Q 1341 3275 1631 3429
Q 1922 3584 2338 3584
Q 2397 3584 2469 3576
Q 2541 3569 2628 3553
L 2631 2963
z
" transform="scale(0.015625)"/>
      <path id="DejaVuSans-5c" d="M 2059 -325
Q 1816 -950 1584 -1140
Q 1353 -1331 966 -1331
L 506 -1331
L 506 -850
L 844 -850
Q 1081 -850 1212 -737
Q 1344 -625 1503 -206
L 1606 56
L 191 3500
L 800 3500
L 1894 763
L 2988 3500
L 3597 3500
L 2059 -325
z
" transform="scale(0.015625)"/>
      <path id="DejaVuSans-e" d="M 2944 4013
L 2944 2272
L 4684 2272
L 4684 1741
L 2944 1741
L 2944 0
L 2419 0
L 2419 1741
L 678 1741
L 678 2272
L 2419 2272
L 2419 4013
L 2944 4013
z
" transform="scale(0.015625)"/>
      <path id="DejaVuSans-46" d="M 3122 3366
L 3122 2828
Q 2878 2963 2633 3030
Q 2388 3097 2138 3097
Q 1578 3097 1268 2742
Q 959 2388 959 1747
Q 959 1106 1268 751
Q 1578 397 2138 397
Q 2388 397 2633 464
Q 2878 531 3122 666
L 3122 134
Q 2881 22 2623 -34
Q 2366 -91 2075 -91
Q 1284 -91 818 406
Q 353 903 353 1747
Q 353 2603 823 3093
Q 1294 3584 2113 3584
Q 2378 3584 2631 3529
Q 2884 3475 3122 3366
z
" transform="scale(0.015625)"/>
      <path id="DejaVuSans-44" d="M 2194 1759
Q 1497 1759 1228 1600
Q 959 1441 959 1056
Q 959 750 1161 570
Q 1363 391 1709 391
Q 2188 391 2477 730
Q 2766 1069 2766 1631
L 2766 1759
L 2194 1759
z
M 3341 1997
L 3341 0
L 2766 0
L 2766 531
Q 2569 213 2275 61
Q 1981 -91 1556 -91
Q 1019 -91 701 211
Q 384 513 384 1019
Q 384 1609 779 1909
Q 1175 2209 1959 2209
L 2766 2209
L 2766 2266
Q 2766 2663 2505 2880
Q 2244 3097 1772 3097
Q 1472 3097 1187 3025
Q 903 2953 641 2809
L 641 3341
Q 956 3463 1253 3523
Q 1550 3584 1831 3584
Q 2591 3584 2966 3190
Q 3341 2797 3341 1997
z
" transform="scale(0.015625)"/>
      <path id="DejaVuSans-4f" d="M 603 4863
L 1178 4863
L 1178 0
L 603 0
L 603 4863
z
" transform="scale(0.015625)"/>
      <path id="DejaVuSans-48" d="M 3597 1894
L 3597 1613
L 953 1613
Q 991 1019 1311 708
Q 1631 397 2203 397
Q 2534 397 2845 478
Q 3156 559 3463 722
L 3463 178
Q 3153 47 2828 -22
Q 2503 -91 2169 -91
Q 1331 -91 842 396
Q 353 884 353 1716
Q 353 2575 817 3079
Q 1281 3584 2069 3584
Q 2775 3584 3186 3129
Q 3597 2675 3597 1894
z
M 3022 2063
Q 3016 2534 2758 2815
Q 2500 3097 2075 3097
Q 1594 3097 1305 2825
Q 1016 2553 972 2059
L 3022 2063
z
" transform="scale(0.015625)"/>
      <path id="DejaVuSans-51" d="M 3513 2113
L 3513 0
L 2938 0
L 2938 2094
Q 2938 2591 2744 2837
Q 2550 3084 2163 3084
Q 1697 3084 1428 2787
Q 1159 2491 1159 1978
L 1159 0
L 581 0
L 581 3500
L 1159 3500
L 1159 2956
Q 1366 3272 1645 3428
Q 1925 3584 2291 3584
Q 2894 3584 3203 3211
Q 3513 2838 3513 2113
z
" transform="scale(0.015625)"/>
      <path id="DejaVuSans-47" d="M 2906 2969
L 2906 4863
L 3481 4863
L 3481 0
L 2906 0
L 2906 525
Q 2725 213 2448 61
Q 2172 -91 1784 -91
Q 1150 -91 751 415
Q 353 922 353 1747
Q 353 2572 751 3078
Q 1150 3584 1784 3584
Q 2172 3584 2448 3432
Q 2725 3281 2906 2969
z
M 947 1747
Q 947 1113 1208 752
Q 1469 391 1925 391
Q 2381 391 2643 752
Q 2906 1113 2906 1747
Q 2906 2381 2643 2742
Q 2381 3103 1925 3103
Q 1469 3103 1208 2742
Q 947 2381 947 1747
z
" transform="scale(0.015625)"/>
     </defs>
     <use xlink:href="#DejaVuSans-16"/>
     <use xlink:href="#DejaVuSans-14" transform="translate(63.625 0)"/>
     <use xlink:href="#DejaVuSans-14" transform="translate(127.25 0)"/>
     <use xlink:href="#DejaVuSans-3" transform="translate(190.875 0)"/>
     <use xlink:href="#DejaVuSans-4b" transform="translate(222.65625 0)"/>
     <use xlink:href="#DejaVuSans-4c" transform="translate(286.03125 0)"/>
     <use xlink:href="#DejaVuSans-56" transform="translate(313.8125 0)"/>
     <use xlink:href="#DejaVuSans-57" transform="translate(365.90625 0)"/>
     <use xlink:href="#DejaVuSans-52" transform="translate(405.109375 0)"/>
     <use xlink:href="#DejaVuSans-55" transform="translate(466.296875 0)"/>
     <use xlink:href="#DejaVuSans-5c" transform="translate(507.40625 0)"/>
     <use xlink:href="#DejaVuSans-3" transform="translate(566.59375 0)"/>
     <use xlink:href="#DejaVuSans-e" transform="translate(598.375 0)"/>
     <use xlink:href="#DejaVuSans-3" transform="translate(682.171875 0)"/>
     <use xlink:href="#DejaVuSans-46" transform="translate(713.953125 0)"/>
     <use xlink:href="#DejaVuSans-44" transform="translate(768.9375 0)"/>
     <use xlink:href="#DejaVuSans-4f" transform="translate(830.21875 0)"/>
     <use xlink:href="#DejaVuSans-48" transform="translate(858 0)"/>
     <use xlink:href="#DejaVuSans-51" transform="translate(919.53125 0)"/>
     <use xlink:href="#DejaVuSans-47" transform="translate(982.90625 0)"/>
     <use xlink:href="#DejaVuSans-44" transform="translate(1046.390625 0)"/>
     <use xlink:href="#DejaVuSans-55" transform="translate(1107.671875 0)"/>
    </g>
   </g>
   <g id="text_3">
    <!-- Weather at t + IDs -->
    <g style="fill: #1f1f1f" transform="translate(32.409125 80.414079) scale(0.07 -0.07)">
     <defs>
      <path id="DejaVuSans-3a" d="M 213 4666
L 850 4666
L 1831 722
L 2809 4666
L 3519 4666
L 4500 722
L 5478 4666
L 6119 4666
L 4947 0
L 4153 0
L 3169 4050
L 2175 0
L 1381 0
L 213 4666
z
" transform="scale(0.015625)"/>
      <path id="DejaVuSans-2c" d="M 628 4666
L 1259 4666
L 1259 0
L 628 0
L 628 4666
z
" transform="scale(0.015625)"/>
      <path id="DejaVuSans-27" d="M 1259 4147
L 1259 519
L 2022 519
Q 2988 519 3436 956
Q 3884 1394 3884 2338
Q 3884 3275 3436 3711
Q 2988 4147 2022 4147
L 1259 4147
z
M 628 4666
L 1925 4666
Q 3281 4666 3915 4102
Q 4550 3538 4550 2338
Q 4550 1131 3912 565
Q 3275 0 1925 0
L 628 0
L 628 4666
z
" transform="scale(0.015625)"/>
     </defs>
     <use xlink:href="#DejaVuSans-3a"/>
     <use xlink:href="#DejaVuSans-48" transform="translate(93.015625 0)"/>
     <use xlink:href="#DejaVuSans-44" transform="translate(154.546875 0)"/>
     <use xlink:href="#DejaVuSans-57" transform="translate(215.828125 0)"/>
     <use xlink:href="#DejaVuSans-4b" transform="translate(255.03125 0)"/>
     <use xlink:href="#DejaVuSans-48" transform="translate(318.40625 0)"/>
     <use xlink:href="#DejaVuSans-55" transform="translate(379.9375 0)"/>
     <use xlink:href="#DejaVuSans-3" transform="translate(421.046875 0)"/>
     <use xlink:href="#DejaVuSans-44" transform="translate(452.828125 0)"/>
     <use xlink:href="#DejaVuSans-57" transform="translate(514.109375 0)"/>
     <use xlink:href="#DejaVuSans-3" transform="translate(553.3125 0)"/>
     <use xlink:href="#DejaVuSans-57" transform="translate(585.09375 0)"/>
     <use xlink:href="#DejaVuSans-3" transform="translate(624.296875 0)"/>
     <use xlink:href="#DejaVuSans-e" transform="translate(656.078125 0)"/>
     <use xlink:href="#DejaVuSans-3" transform="translate(739.875 0)"/>
     <use xlink:href="#DejaVuSans-2c" transform="translate(771.65625 0)"/>
     <use xlink:href="#DejaVuSans-27" transform="translate(801.15625 0)"/>
     <use xlink:href="#DejaVuSans-56" transform="translate(878.15625 0)"/>
    </g>
   </g>
   <g id="text_4">
    <!-- Leakage-controlled -->
    <g transform="translate(141.408345 36.476827) scale(0.087 -0.087)">
     <defs>
      <path id="DejaVuSans-Bold-2f" d="M 588 4666
L 1791 4666
L 1791 909
L 3903 909
L 3903 0
L 588 0
L 588 4666
z
" transform="scale(0.015625)"/>
      <path id="DejaVuSans-Bold-4e" d="M 538 4863
L 1656 4863
L 1656 2216
L 2944 3500
L 4244 3500
L 2534 1894
L 4378 0
L 3022 0
L 1656 1459
L 1656 0
L 538 0
L 538 4863
z
" transform="scale(0.015625)"/>
      <path id="DejaVuSans-Bold-47" d="M 2919 2988
L 2919 4863
L 4044 4863
L 4044 0
L 2919 0
L 2919 506
Q 2688 197 2409 53
Q 2131 -91 1766 -91
Q 1119 -91 703 423
Q 288 938 288 1747
Q 288 2556 703 3070
Q 1119 3584 1766 3584
Q 2128 3584 2408 3439
Q 2688 3294 2919 2988
z
M 2181 722
Q 2541 722 2730 984
Q 2919 1247 2919 1747
Q 2919 2247 2730 2509
Q 2541 2772 2181 2772
Q 1825 2772 1636 2509
Q 1447 2247 1447 1747
Q 1447 1247 1636 984
Q 1825 722 2181 722
z
" transform="scale(0.015625)"/>
     </defs>
     <use xlink:href="#DejaVuSans-Bold-2f"/>
     <use xlink:href="#DejaVuSans-Bold-48" transform="translate(63.71875 0)"/>
     <use xlink:href="#DejaVuSans-Bold-44" transform="translate(131.546875 0)"/>
     <use xlink:href="#DejaVuSans-Bold-4e" transform="translate(199.03125 0)"/>
     <use xlink:href="#DejaVuSans-Bold-44" transform="translate(265.53125 0)"/>
     <use xlink:href="#DejaVuSans-Bold-4a" transform="translate(333.015625 0)"/>
     <use xlink:href="#DejaVuSans-Bold-48" transform="translate(404.59375 0)"/>
     <use xlink:href="#DejaVuSans-Bold-10" transform="translate(472.421875 0)"/>
     <use xlink:href="#DejaVuSans-Bold-46" transform="translate(513.921875 0)"/>
     <use xlink:href="#DejaVuSans-Bold-52" transform="translate(573.203125 0)"/>
     <use xlink:href="#DejaVuSans-Bold-51" transform="translate(641.90625 0)"/>
     <use xlink:href="#DejaVuSans-Bold-57" transform="translate(713.09375 0)"/>
     <use xlink:href="#DejaVuSans-Bold-55" transform="translate(760.890625 0)"/>
     <use xlink:href="#DejaVuSans-Bold-52" transform="translate(810.203125 0)"/>
     <use xlink:href="#DejaVuSans-Bold-4f" transform="translate(878.90625 0)"/>
     <use xlink:href="#DejaVuSans-Bold-4f" transform="translate(913.1875 0)"/>
     <use xlink:href="#DejaVuSans-Bold-48" transform="translate(947.46875 0)"/>
     <use xlink:href="#DejaVuSans-Bold-47" transform="translate(1015.296875 0)"/>
    </g>
    <!-- panel -->
    <g transform="translate(175.099775 45.471811) scale(0.087 -0.087)">
     <defs>
      <path id="DejaVuSans-Bold-53" d="M 1656 506
L 1656 -1331
L 538 -1331
L 538 3500
L 1656 3500
L 1656 2988
Q 1888 3294 2169 3439
Q 2450 3584 2816 3584
Q 3463 3584 3878 3070
Q 4294 2556 4294 1747
Q 4294 938 3878 423
Q 3463 -91 2816 -91
Q 2450 -91 2169 54
Q 1888 200 1656 506
z
M 2400 2772
Q 2041 2772 1848 2508
Q 1656 2244 1656 1747
Q 1656 1250 1848 986
Q 2041 722 2400 722
Q 2759 722 2948 984
Q 3138 1247 3138 1747
Q 3138 2247 2948 2509
Q 2759 2772 2400 2772
z
" transform="scale(0.015625)"/>
     </defs>
     <use xlink:href="#DejaVuSans-Bold-53"/>
     <use xlink:href="#DejaVuSans-Bold-44" transform="translate(71.578125 0)"/>
     <use xlink:href="#DejaVuSans-Bold-51" transform="translate(139.0625 0)"/>
     <use xlink:href="#DejaVuSans-Bold-48" transform="translate(210.25 0)"/>
     <use xlink:href="#DejaVuSans-Bold-4f" transform="translate(278.078125 0)"/>
    </g>
   </g>
   <g id="text_5">
    <!-- NTA x week x category -->
    <g style="fill: #1f1f1f" transform="translate(148.551158 69.502355) scale(0.07 -0.07)">
     <defs>
      <path id="DejaVuSans-31" d="M 628 4666
L 1478 4666
L 3547 763
L 3547 4666
L 4159 4666
L 4159 0
L 3309 0
L 1241 3903
L 1241 0
L 628 0
L 628 4666
z
" transform="scale(0.015625)"/>
      <path id="DejaVuSans-37" d="M -19 4666
L 3928 4666
L 3928 4134
L 2272 4134
L 2272 0
L 1638 0
L 1638 4134
L -19 4134
L -19 4666
z
" transform="scale(0.015625)"/>
      <path id="DejaVuSans-24" d="M 2188 4044
L 1331 1722
L 3047 1722
L 2188 4044
z
M 1831 4666
L 2547 4666
L 4325 0
L 3669 0
L 3244 1197
L 1141 1197
L 716 0
L 50 0
L 1831 4666
z
" transform="scale(0.015625)"/>
      <path id="DejaVuSans-5b" d="M 3513 3500
L 2247 1797
L 3578 0
L 2900 0
L 1881 1375
L 863 0
L 184 0
L 1544 1831
L 300 3500
L 978 3500
L 1906 2253
L 2834 3500
L 3513 3500
z
" transform="scale(0.015625)"/>
      <path id="DejaVuSans-5a" d="M 269 3500
L 844 3500
L 1563 769
L 2278 3500
L 2956 3500
L 3675 769
L 4391 3500
L 4966 3500
L 4050 0
L 3372 0
L 2619 2869
L 1863 0
L 1184 0
L 269 3500
z
" transform="scale(0.015625)"/>
      <path id="DejaVuSans-4e" d="M 581 4863
L 1159 4863
L 1159 1991
L 2875 3500
L 3609 3500
L 1753 1863
L 3688 0
L 2938 0
L 1159 1709
L 1159 0
L 581 0
L 581 4863
z
" transform="scale(0.015625)"/>
      <path id="DejaVuSans-4a" d="M 2906 1791
Q 2906 2416 2648 2759
Q 2391 3103 1925 3103
Q 1463 3103 1205 2759
Q 947 2416 947 1791
Q 947 1169 1205 825
Q 1463 481 1925 481
Q 2391 481 2648 825
Q 2906 1169 2906 1791
z
M 3481 434
Q 3481 -459 3084 -895
Q 2688 -1331 1869 -1331
Q 1566 -1331 1297 -1286
Q 1028 -1241 775 -1147
L 775 -588
Q 1028 -725 1275 -790
Q 1522 -856 1778 -856
Q 2344 -856 2625 -561
Q 2906 -266 2906 331
L 2906 616
Q 2728 306 2450 153
Q 2172 0 1784 0
Q 1141 0 747 490
Q 353 981 353 1791
Q 353 2603 747 3093
Q 1141 3584 1784 3584
Q 2172 3584 2450 3431
Q 2728 3278 2906 2969
L 2906 3500
L 3481 3500
L 3481 434
z
" transform="scale(0.015625)"/>
     </defs>
     <use xlink:href="#DejaVuSans-31"/>
     <use xlink:href="#DejaVuSans-37" transform="translate(74.8125 0)"/>
     <use xlink:href="#DejaVuSans-24" transform="translate(128.125 0)"/>
     <use xlink:href="#DejaVuSans-3" transform="translate(196.53125 0)"/>
     <use xlink:href="#DejaVuSans-5b" transform="translate(228.3125 0)"/>
     <use xlink:href="#DejaVuSans-3" transform="translate(287.5 0)"/>
     <use xlink:href="#DejaVuSans-5a" transform="translate(319.28125 0)"/>
     <use xlink:href="#DejaVuSans-48" transform="translate(401.0625 0)"/>
     <use xlink:href="#DejaVuSans-48" transform="translate(462.59375 0)"/>
     <use xlink:href="#DejaVuSans-4e" transform="translate(524.125 0)"/>
     <use xlink:href="#DejaVuSans-3" transform="translate(582.03125 0)"/>
     <use xlink:href="#DejaVuSans-5b" transform="translate(613.8125 0)"/>
     <use xlink:href="#DejaVuSans-3" transform="translate(673 0)"/>
     <use xlink:href="#DejaVuSans-46" transform="translate(704.78125 0)"/>
     <use xlink:href="#DejaVuSans-44" transform="translate(759.765625 0)"/>
     <use xlink:href="#DejaVuSans-57" transform="translate(821.046875 0)"/>
     <use xlink:href="#DejaVuSans-48" transform="translate(860.25 0)"/>
     <use xlink:href="#DejaVuSans-4a" transform="translate(921.78125 0)"/>
     <use xlink:href="#DejaVuSans-52" transform="translate(985.265625 0)"/>
     <use xlink:href="#DejaVuSans-55" transform="translate(1046.453125 0)"/>
     <use xlink:href="#DejaVuSans-5c" transform="translate(1087.5625 0)"/>
    </g>
   </g>
   <g id="text_6">
    <!-- history t -&gt; event t+1 -->
    <g style="fill: #1f1f1f" transform="translate(150.131627 80.414079) scale(0.07 -0.07)">
     <defs>
      <path id="DejaVuSans-10" d="M 313 2009
L 1997 2009
L 1997 1497
L 313 1497
L 313 2009
z
" transform="scale(0.015625)"/>
      <path id="DejaVuSans-21" d="M 678 3150
L 678 3719
L 4684 2266
L 4684 1747
L 678 294
L 678 863
L 3897 2003
L 678 3150
z
" transform="scale(0.015625)"/>
      <path id="DejaVuSans-59" d="M 191 3500
L 800 3500
L 1894 563
L 2988 3500
L 3597 3500
L 2284 0
L 1503 0
L 191 3500
z
" transform="scale(0.015625)"/>
     </defs>
     <use xlink:href="#DejaVuSans-4b"/>
     <use xlink:href="#DejaVuSans-4c" transform="translate(63.375 0)"/>
     <use xlink:href="#DejaVuSans-56" transform="translate(91.15625 0)"/>
     <use xlink:href="#DejaVuSans-57" transform="translate(143.25 0)"/>
     <use xlink:href="#DejaVuSans-52" transform="translate(182.453125 0)"/>
     <use xlink:href="#DejaVuSans-55" transform="translate(243.640625 0)"/>
     <use xlink:href="#DejaVuSans-5c" transform="translate(284.75 0)"/>
     <use xlink:href="#DejaVuSans-3" transform="translate(343.9375 0)"/>
     <use xlink:href="#DejaVuSans-57" transform="translate(375.71875 0)"/>
     <use xlink:href="#DejaVuSans-3" transform="translate(414.921875 0)"/>
     <use xlink:href="#DejaVuSans-10" transform="translate(446.703125 0)"/>
     <use xlink:href="#DejaVuSans-21" transform="translate(482.78125 0)"/>
     <use xlink:href="#DejaVuSans-3" transform="translate(566.578125 0)"/>
     <use xlink:href="#DejaVuSans-48" transform="translate(598.359375 0)"/>
     <use xlink:href="#DejaVuSans-59" transform="translate(659.890625 0)"/>
     <use xlink:href="#DejaVuSans-48" transform="translate(719.078125 0)"/>
     <use xlink:href="#DejaVuSans-51" transform="translate(780.609375 0)"/>
     <use xlink:href="#DejaVuSans-57" transform="translate(843.984375 0)"/>
     <use xlink:href="#DejaVuSans-3" transform="translate(883.1875 0)"/>
     <use xlink:href="#DejaVuSans-57" transform="translate(914.96875 0)"/>
     <use xlink:href="#DejaVuSans-e" transform="translate(954.171875 0)"/>
     <use xlink:href="#DejaVuSans-14" transform="translate(1037.96875 0)"/>
    </g>
   </g>
   <g id="text_7">
    <!-- t -&gt; t+1 design -->
    <g style="fill: #c65d12" transform="translate(157.064549 106.418762) scale(0.074 -0.074)">
     <defs>
      <path id="DejaVuSans-Bold-3" transform="scale(0.015625)"/>
      <path id="DejaVuSans-Bold-21" d="M 678 3041
L 678 3822
L 4684 2375
L 4684 1638
L 678 191
L 678 972
L 3694 2003
L 678 3041
z
" transform="scale(0.015625)"/>
      <path id="DejaVuSans-Bold-e" d="M 3053 4013
L 3053 2375
L 4684 2375
L 4684 1638
L 3053 1638
L 3053 0
L 2309 0
L 2309 1638
L 678 1638
L 678 2375
L 2309 2375
L 2309 4013
L 3053 4013
z
" transform="scale(0.015625)"/>
      <path id="DejaVuSans-Bold-14" d="M 750 831
L 1813 831
L 1813 3847
L 722 3622
L 722 4441
L 1806 4666
L 2950 4666
L 2950 831
L 4013 831
L 4013 0
L 750 0
L 750 831
z
" transform="scale(0.015625)"/>
     </defs>
     <use xlink:href="#DejaVuSans-Bold-57"/>
     <use xlink:href="#DejaVuSans-Bold-3" transform="translate(47.796875 0)"/>
     <use xlink:href="#DejaVuSans-Bold-10" transform="translate(82.609375 0)"/>
     <use xlink:href="#DejaVuSans-Bold-21" transform="translate(124.109375 0)"/>
     <use xlink:href="#DejaVuSans-Bold-3" transform="translate(207.90625 0)"/>
     <use xlink:href="#DejaVuSans-Bold-57" transform="translate(242.71875 0)"/>
     <use xlink:href="#DejaVuSans-Bold-e" transform="translate(290.515625 0)"/>
     <use xlink:href="#DejaVuSans-Bold-14" transform="translate(374.3125 0)"/>
     <use xlink:href="#DejaVuSans-Bold-3" transform="translate(443.890625 0)"/>
     <use xlink:href="#DejaVuSans-Bold-47" transform="translate(478.703125 0)"/>
     <use xlink:href="#DejaVuSans-Bold-48" transform="translate(550.28125 0)"/>
     <use xlink:href="#DejaVuSans-Bold-56" transform="translate(618.109375 0)"/>
     <use xlink:href="#DejaVuSans-Bold-4c" transform="translate(677.625 0)"/>
     <use xlink:href="#DejaVuSans-Bold-4a" transform="translate(711.90625 0)"/>
     <use xlink:href="#DejaVuSans-Bold-51" transform="translate(783.484375 0)"/>
    </g>
   </g>
   <g id="text_8">
    <!-- Prospective -->
    <g transform="translate(283.496433 36.510811) scale(0.087 -0.087)">
     <defs>
      <path id="DejaVuSans-Bold-33" d="M 588 4666
L 2584 4666
Q 3475 4666 3951 4270
Q 4428 3875 4428 3144
Q 4428 2409 3951 2014
Q 3475 1619 2584 1619
L 1791 1619
L 1791 0
L 588 0
L 588 4666
z
M 1791 3794
L 1791 2491
L 2456 2491
Q 2806 2491 2997 2661
Q 3188 2831 3188 3144
Q 3188 3456 2997 3625
Q 2806 3794 2456 3794
L 1791 3794
z
" transform="scale(0.015625)"/>
     </defs>
     <use xlink:href="#DejaVuSans-Bold-33"/>
     <use xlink:href="#DejaVuSans-Bold-55" transform="translate(73.296875 0)"/>
     <use xlink:href="#DejaVuSans-Bold-52" transform="translate(122.609375 0)"/>
     <use xlink:href="#DejaVuSans-Bold-56" transform="translate(191.3125 0)"/>
     <use xlink:href="#DejaVuSans-Bold-53" transform="translate(250.828125 0)"/>
     <use xlink:href="#DejaVuSans-Bold-48" transform="translate(322.40625 0)"/>
     <use xlink:href="#DejaVuSans-Bold-46" transform="translate(390.234375 0)"/>
     <use xlink:href="#DejaVuSans-Bold-57" transform="translate(449.515625 0)"/>
     <use xlink:href="#DejaVuSans-Bold-4c" transform="translate(497.3125 0)"/>
     <use xlink:href="#DejaVuSans-Bold-59" transform="translate(531.59375 0)"/>
     <use xlink:href="#DejaVuSans-Bold-48" transform="translate(596.78125 0)"/>
    </g>
    <!-- evaluation -->
    <g transform="translate(286.506089 46.314624) scale(0.087 -0.087)">
     <defs>
      <path id="DejaVuSans-Bold-58" d="M 500 1363
L 500 3500
L 1625 3500
L 1625 3150
Q 1625 2866 1622 2436
Q 1619 2006 1619 1863
Q 1619 1441 1641 1255
Q 1663 1069 1716 984
Q 1784 875 1895 815
Q 2006 756 2150 756
Q 2500 756 2700 1025
Q 2900 1294 2900 1772
L 2900 3500
L 4019 3500
L 4019 0
L 2900 0
L 2900 506
Q 2647 200 2364 54
Q 2081 -91 1741 -91
Q 1134 -91 817 281
Q 500 653 500 1363
z
" transform="scale(0.015625)"/>
     </defs>
     <use xlink:href="#DejaVuSans-Bold-48"/>
     <use xlink:href="#DejaVuSans-Bold-59" transform="translate(67.828125 0)"/>
     <use xlink:href="#DejaVuSans-Bold-44" transform="translate(133.015625 0)"/>
     <use xlink:href="#DejaVuSans-Bold-4f" transform="translate(200.5 0)"/>
     <use xlink:href="#DejaVuSans-Bold-58" transform="translate(234.78125 0)"/>
     <use xlink:href="#DejaVuSans-Bold-44" transform="translate(305.96875 0)"/>
     <use xlink:href="#DejaVuSans-Bold-57" transform="translate(373.453125 0)"/>
     <use xlink:href="#DejaVuSans-Bold-4c" transform="translate(421.25 0)"/>
     <use xlink:href="#DejaVuSans-Bold-52" transform="translate(455.53125 0)"/>
     <use xlink:href="#DejaVuSans-Bold-51" transform="translate(524.234375 0)"/>
    </g>
   </g>
   <g id="text_9">
    <!-- LightGBM + XGBoost -->
    <g style="fill: #1f1f1f" transform="translate(275.392253 69.502355) scale(0.07 -0.07)">
     <defs>
      <path id="DejaVuSans-2f" d="M 628 4666
L 1259 4666
L 1259 531
L 3531 531
L 3531 0
L 628 0
L 628 4666
z
" transform="scale(0.015625)"/>
      <path id="DejaVuSans-2a" d="M 3809 666
L 3809 1919
L 2778 1919
L 2778 2438
L 4434 2438
L 4434 434
Q 4069 175 3628 42
Q 3188 -91 2688 -91
Q 1594 -91 976 548
Q 359 1188 359 2328
Q 359 3472 976 4111
Q 1594 4750 2688 4750
Q 3144 4750 3555 4637
Q 3966 4525 4313 4306
L 4313 3634
Q 3963 3931 3569 4081
Q 3175 4231 2741 4231
Q 1884 4231 1454 3753
Q 1025 3275 1025 2328
Q 1025 1384 1454 906
Q 1884 428 2741 428
Q 3075 428 3337 486
Q 3600 544 3809 666
z
" transform="scale(0.015625)"/>
      <path id="DejaVuSans-25" d="M 1259 2228
L 1259 519
L 2272 519
Q 2781 519 3026 730
Q 3272 941 3272 1375
Q 3272 1813 3026 2020
Q 2781 2228 2272 2228
L 1259 2228
z
M 1259 4147
L 1259 2741
L 2194 2741
Q 2656 2741 2882 2914
Q 3109 3088 3109 3444
Q 3109 3797 2882 3972
Q 2656 4147 2194 4147
L 1259 4147
z
M 628 4666
L 2241 4666
Q 2963 4666 3353 4366
Q 3744 4066 3744 3513
Q 3744 3084 3544 2831
Q 3344 2578 2956 2516
Q 3422 2416 3680 2098
Q 3938 1781 3938 1306
Q 3938 681 3513 340
Q 3088 0 2303 0
L 628 0
L 628 4666
z
" transform="scale(0.015625)"/>
      <path id="DejaVuSans-30" d="M 628 4666
L 1569 4666
L 2759 1491
L 3956 4666
L 4897 4666
L 4897 0
L 4281 0
L 4281 4097
L 3078 897
L 2444 897
L 1241 4097
L 1241 0
L 628 0
L 628 4666
z
" transform="scale(0.015625)"/>
      <path id="DejaVuSans-3b" d="M 403 4666
L 1081 4666
L 2241 2931
L 3406 4666
L 4084 4666
L 2584 2425
L 4184 0
L 3506 0
L 2194 1984
L 872 0
L 191 0
L 1856 2491
L 403 4666
z
" transform="scale(0.015625)"/>
     </defs>
     <use xlink:href="#DejaVuSans-2f"/>
     <use xlink:href="#DejaVuSans-4c" transform="translate(55.71875 0)"/>
     <use xlink:href="#DejaVuSans-4a" transform="translate(83.5 0)"/>
     <use xlink:href="#DejaVuSans-4b" transform="translate(146.984375 0)"/>
     <use xlink:href="#DejaVuSans-57" transform="translate(210.359375 0)"/>
     <use xlink:href="#DejaVuSans-2a" transform="translate(249.5625 0)"/>
     <use xlink:href="#DejaVuSans-25" transform="translate(327.046875 0)"/>
     <use xlink:href="#DejaVuSans-30" transform="translate(395.65625 0)"/>
     <use xlink:href="#DejaVuSans-3" transform="translate(481.9375 0)"/>
     <use xlink:href="#DejaVuSans-e" transform="translate(513.71875 0)"/>
     <use xlink:href="#DejaVuSans-3" transform="translate(597.515625 0)"/>
     <use xlink:href="#DejaVuSans-3b" transform="translate(629.296875 0)"/>
     <use xlink:href="#DejaVuSans-2a" transform="translate(697.796875 0)"/>
     <use xlink:href="#DejaVuSans-25" transform="translate(775.28125 0)"/>
     <use xlink:href="#DejaVuSans-52" transform="translate(843.890625 0)"/>
     <use xlink:href="#DejaVuSans-52" transform="translate(905.078125 0)"/>
     <use xlink:href="#DejaVuSans-56" transform="translate(966.265625 0)"/>
     <use xlink:href="#DejaVuSans-57" transform="translate(1018.359375 0)"/>
    </g>
   </g>
   <g id="text_10">
    <!-- 2015-22 train | 2023 val. -->
    <g style="fill: #1f1f1f" transform="translate(268.799675 80.444704) scale(0.07 -0.07)">
     <defs>
      <path id="DejaVuSans-15" d="M 1228 531
L 3431 531
L 3431 0
L 469 0
L 469 531
Q 828 903 1448 1529
Q 2069 2156 2228 2338
Q 2531 2678 2651 2914
Q 2772 3150 2772 3378
Q 2772 3750 2511 3984
Q 2250 4219 1831 4219
Q 1534 4219 1204 4116
Q 875 4013 500 3803
L 500 4441
Q 881 4594 1212 4672
Q 1544 4750 1819 4750
Q 2544 4750 2975 4387
Q 3406 4025 3406 3419
Q 3406 3131 3298 2873
Q 3191 2616 2906 2266
Q 2828 2175 2409 1742
Q 1991 1309 1228 531
z
" transform="scale(0.015625)"/>
      <path id="DejaVuSans-13" d="M 2034 4250
Q 1547 4250 1301 3770
Q 1056 3291 1056 2328
Q 1056 1369 1301 889
Q 1547 409 2034 409
Q 2525 409 2770 889
Q 3016 1369 3016 2328
Q 3016 3291 2770 3770
Q 2525 4250 2034 4250
z
M 2034 4750
Q 2819 4750 3233 4129
Q 3647 3509 3647 2328
Q 3647 1150 3233 529
Q 2819 -91 2034 -91
Q 1250 -91 836 529
Q 422 1150 422 2328
Q 422 3509 836 4129
Q 1250 4750 2034 4750
z
" transform="scale(0.015625)"/>
      <path id="DejaVuSans-18" d="M 691 4666
L 3169 4666
L 3169 4134
L 1269 4134
L 1269 2991
Q 1406 3038 1543 3061
Q 1681 3084 1819 3084
Q 2600 3084 3056 2656
Q 3513 2228 3513 1497
Q 3513 744 3044 326
Q 2575 -91 1722 -91
Q 1428 -91 1123 -41
Q 819 9 494 109
L 494 744
Q 775 591 1075 516
Q 1375 441 1709 441
Q 2250 441 2565 725
Q 2881 1009 2881 1497
Q 2881 1984 2565 2268
Q 2250 2553 1709 2553
Q 1456 2553 1204 2497
Q 953 2441 691 2322
L 691 4666
z
" transform="scale(0.015625)"/>
      <path id="DejaVuSans-5f" d="M 1344 4891
L 1344 -1509
L 813 -1509
L 813 4891
L 1344 4891
z
" transform="scale(0.015625)"/>
      <path id="DejaVuSans-11" d="M 684 794
L 1344 794
L 1344 0
L 684 0
L 684 794
z
" transform="scale(0.015625)"/>
     </defs>
     <use xlink:href="#DejaVuSans-15"/>
     <use xlink:href="#DejaVuSans-13" transform="translate(63.625 0)"/>
     <use xlink:href="#DejaVuSans-14" transform="translate(127.25 0)"/>
     <use xlink:href="#DejaVuSans-18" transform="translate(190.875 0)"/>
     <use xlink:href="#DejaVuSans-10" transform="translate(254.5 0)"/>
     <use xlink:href="#DejaVuSans-15" transform="translate(290.578125 0)"/>
     <use xlink:href="#DejaVuSans-15" transform="translate(354.203125 0)"/>
     <use xlink:href="#DejaVuSans-3" transform="translate(417.828125 0)"/>
     <use xlink:href="#DejaVuSans-57" transform="translate(449.609375 0)"/>
     <use xlink:href="#DejaVuSans-55" transform="translate(488.8125 0)"/>
     <use xlink:href="#DejaVuSans-44" transform="translate(529.921875 0)"/>
     <use xlink:href="#DejaVuSans-4c" transform="translate(591.203125 0)"/>
     <use xlink:href="#DejaVuSans-51" transform="translate(618.984375 0)"/>
     <use xlink:href="#DejaVuSans-3" transform="translate(682.359375 0)"/>
     <use xlink:href="#DejaVuSans-5f" transform="translate(714.140625 0)"/>
     <use xlink:href="#DejaVuSans-3" transform="translate(747.828125 0)"/>
     <use xlink:href="#DejaVuSans-15" transform="translate(779.609375 0)"/>
     <use xlink:href="#DejaVuSans-13" transform="translate(843.234375 0)"/>
     <use xlink:href="#DejaVuSans-15" transform="translate(906.859375 0)"/>
     <use xlink:href="#DejaVuSans-16" transform="translate(970.484375 0)"/>
     <use xlink:href="#DejaVuSans-3" transform="translate(1034.109375 0)"/>
     <use xlink:href="#DejaVuSans-59" transform="translate(1065.890625 0)"/>
     <use xlink:href="#DejaVuSans-44" transform="translate(1125.078125 0)"/>
     <use xlink:href="#DejaVuSans-4f" transform="translate(1186.359375 0)"/>
     <use xlink:href="#DejaVuSans-11" transform="translate(1214.140625 0)"/>
    </g>
   </g>
   <g id="text_11">
    <!-- 2024-25 test -->
    <g style="fill: #1f1f1f" transform="translate(289.949519 91.325256) scale(0.07 -0.07)">
     <defs>
      <path id="DejaVuSans-17" d="M 2419 4116
L 825 1625
L 2419 1625
L 2419 4116
z
M 2253 4666
L 3047 4666
L 3047 1625
L 3713 1625
L 3713 1100
L 3047 1100
L 3047 0
L 2419 0
L 2419 1100
L 313 1100
L 313 1709
L 2253 4666
z
" transform="scale(0.015625)"/>
     </defs>
     <use xlink:href="#DejaVuSans-15"/>
     <use xlink:href="#DejaVuSans-13" transform="translate(63.625 0)"/>
     <use xlink:href="#DejaVuSans-15" transform="translate(127.25 0)"/>
     <use xlink:href="#DejaVuSans-17" transform="translate(190.875 0)"/>
     <use xlink:href="#DejaVuSans-10" transform="translate(254.5 0)"/>
     <use xlink:href="#DejaVuSans-15" transform="translate(290.578125 0)"/>
     <use xlink:href="#DejaVuSans-18" transform="translate(354.203125 0)"/>
     <use xlink:href="#DejaVuSans-3" transform="translate(417.828125 0)"/>
     <use xlink:href="#DejaVuSans-57" transform="translate(449.609375 0)"/>
     <use xlink:href="#DejaVuSans-48" transform="translate(488.8125 0)"/>
     <use xlink:href="#DejaVuSans-56" transform="translate(550.34375 0)"/>
     <use xlink:href="#DejaVuSans-57" transform="translate(602.4375 0)"/>
    </g>
   </g>
   <g id="text_12">
    <!-- Category-calibrated -->
    <g transform="translate(387.246067 36.476827) scale(0.087 -0.087)">
     <defs>
      <path id="DejaVuSans-Bold-26" d="M 4288 256
Q 3956 84 3597 -3
Q 3238 -91 2847 -91
Q 1681 -91 1000 561
Q 319 1213 319 2328
Q 319 3447 1000 4098
Q 1681 4750 2847 4750
Q 3238 4750 3597 4662
Q 3956 4575 4288 4403
L 4288 3438
Q 3953 3666 3628 3772
Q 3303 3878 2944 3878
Q 2300 3878 1931 3465
Q 1563 3053 1563 2328
Q 1563 1606 1931 1193
Q 2300 781 2944 781
Q 3303 781 3628 887
Q 3953 994 4288 1222
L 4288 256
z
" transform="scale(0.015625)"/>
      <path id="DejaVuSans-Bold-5c" d="M 78 3500
L 1197 3500
L 2138 1125
L 2938 3500
L 4056 3500
L 2584 -331
Q 2363 -916 2067 -1148
Q 1772 -1381 1288 -1381
L 641 -1381
L 641 -647
L 991 -647
Q 1275 -647 1404 -556
Q 1534 -466 1606 -231
L 1638 -134
L 78 3500
z
" transform="scale(0.015625)"/>
     </defs>
     <use xlink:href="#DejaVuSans-Bold-26"/>
     <use xlink:href="#DejaVuSans-Bold-44" transform="translate(73.390625 0)"/>
     <use xlink:href="#DejaVuSans-Bold-57" transform="translate(140.875 0)"/>
     <use xlink:href="#DejaVuSans-Bold-48" transform="translate(188.671875 0)"/>
     <use xlink:href="#DejaVuSans-Bold-4a" transform="translate(256.5 0)"/>
     <use xlink:href="#DejaVuSans-Bold-52" transform="translate(328.078125 0)"/>
     <use xlink:href="#DejaVuSans-Bold-55" transform="translate(396.78125 0)"/>
     <use xlink:href="#DejaVuSans-Bold-5c" transform="translate(446.09375 0)"/>
     <use xlink:href="#DejaVuSans-Bold-10" transform="translate(511.28125 0)"/>
     <use xlink:href="#DejaVuSans-Bold-46" transform="translate(552.78125 0)"/>
     <use xlink:href="#DejaVuSans-Bold-44" transform="translate(612.0625 0)"/>
     <use xlink:href="#DejaVuSans-Bold-4f" transform="translate(679.546875 0)"/>
     <use xlink:href="#DejaVuSans-Bold-4c" transform="translate(713.828125 0)"/>
     <use xlink:href="#DejaVuSans-Bold-45" transform="translate(748.109375 0)"/>
     <use xlink:href="#DejaVuSans-Bold-55" transform="translate(819.6875 0)"/>
     <use xlink:href="#DejaVuSans-Bold-44" transform="translate(869 0)"/>
     <use xlink:href="#DejaVuSans-Bold-57" transform="translate(936.484375 0)"/>
     <use xlink:href="#DejaVuSans-Bold-48" transform="translate(984.28125 0)"/>
     <use xlink:href="#DejaVuSans-Bold-47" transform="translate(1052.109375 0)"/>
    </g>
    <!-- alerts -->
    <g transform="translate(421.935958 46.314624) scale(0.087 -0.087)">
     <use xlink:href="#DejaVuSans-Bold-44"/>
     <use xlink:href="#DejaVuSans-Bold-4f" transform="translate(67.484375 0)"/>
     <use xlink:href="#DejaVuSans-Bold-48" transform="translate(101.765625 0)"/>
     <use xlink:href="#DejaVuSans-Bold-55" transform="translate(169.59375 0)"/>
     <use xlink:href="#DejaVuSans-Bold-57" transform="translate(218.90625 0)"/>
     <use xlink:href="#DejaVuSans-Bold-56" transform="translate(266.703125 0)"/>
    </g>
   </g>
   <g id="text_13">
    <!-- ensemble score -->
    <g style="fill: #1f1f1f" transform="translate(408.503817 69.502355) scale(0.07 -0.07)">
     <defs>
      <path id="DejaVuSans-50" d="M 3328 2828
Q 3544 3216 3844 3400
Q 4144 3584 4550 3584
Q 5097 3584 5394 3201
Q 5691 2819 5691 2113
L 5691 0
L 5113 0
L 5113 2094
Q 5113 2597 4934 2840
Q 4756 3084 4391 3084
Q 3944 3084 3684 2787
Q 3425 2491 3425 1978
L 3425 0
L 2847 0
L 2847 2094
Q 2847 2600 2669 2842
Q 2491 3084 2119 3084
Q 1678 3084 1418 2786
Q 1159 2488 1159 1978
L 1159 0
L 581 0
L 581 3500
L 1159 3500
L 1159 2956
Q 1356 3278 1631 3431
Q 1906 3584 2284 3584
Q 2666 3584 2933 3390
Q 3200 3197 3328 2828
z
" transform="scale(0.015625)"/>
      <path id="DejaVuSans-45" d="M 3116 1747
Q 3116 2381 2855 2742
Q 2594 3103 2138 3103
Q 1681 3103 1420 2742
Q 1159 2381 1159 1747
Q 1159 1113 1420 752
Q 1681 391 2138 391
Q 2594 391 2855 752
Q 3116 1113 3116 1747
z
M 1159 2969
Q 1341 3281 1617 3432
Q 1894 3584 2278 3584
Q 2916 3584 3314 3078
Q 3713 2572 3713 1747
Q 3713 922 3314 415
Q 2916 -91 2278 -91
Q 1894 -91 1617 61
Q 1341 213 1159 525
L 1159 0
L 581 0
L 581 4863
L 1159 4863
L 1159 2969
z
" transform="scale(0.015625)"/>
     </defs>
     <use xlink:href="#DejaVuSans-48"/>
     <use xlink:href="#DejaVuSans-51" transform="translate(61.53125 0)"/>
     <use xlink:href="#DejaVuSans-56" transform="translate(124.90625 0)"/>
     <use xlink:href="#DejaVuSans-48" transform="translate(177 0)"/>
     <use xlink:href="#DejaVuSans-50" transform="translate(238.53125 0)"/>
     <use xlink:href="#DejaVuSans-45" transform="translate(335.9375 0)"/>
     <use xlink:href="#DejaVuSans-4f" transform="translate(399.421875 0)"/>
     <use xlink:href="#DejaVuSans-48" transform="translate(427.203125 0)"/>
     <use xlink:href="#DejaVuSans-3" transform="translate(488.734375 0)"/>
     <use xlink:href="#DejaVuSans-56" transform="translate(520.515625 0)"/>
     <use xlink:href="#DejaVuSans-46" transform="translate(572.609375 0)"/>
     <use xlink:href="#DejaVuSans-52" transform="translate(627.59375 0)"/>
     <use xlink:href="#DejaVuSans-55" transform="translate(688.78125 0)"/>
     <use xlink:href="#DejaVuSans-48" transform="translate(727.6875 0)"/>
    </g>
   </g>
   <g id="text_14">
    <!-- service threshold -->
    <g style="fill: #1f1f1f" transform="translate(405.993661 80.414079) scale(0.07 -0.07)">
     <use xlink:href="#DejaVuSans-56"/>
     <use xlink:href="#DejaVuSans-48" transform="translate(52.09375 0)"/>
     <use xlink:href="#DejaVuSans-55" transform="translate(113.625 0)"/>
     <use xlink:href="#DejaVuSans-59" transform="translate(154.734375 0)"/>
     <use xlink:href="#DejaVuSans-4c" transform="translate(213.921875 0)"/>
     <use xlink:href="#DejaVuSans-46" transform="translate(241.703125 0)"/>
     <use xlink:href="#DejaVuSans-48" transform="translate(296.6875 0)"/>
     <use xlink:href="#DejaVuSans-3" transform="translate(358.21875 0)"/>
     <use xlink:href="#DejaVuSans-57" transform="translate(390 0)"/>
     <use xlink:href="#DejaVuSans-4b" transform="translate(429.203125 0)"/>
     <use xlink:href="#DejaVuSans-55" transform="translate(492.578125 0)"/>
     <use xlink:href="#DejaVuSans-48" transform="translate(531.484375 0)"/>
     <use xlink:href="#DejaVuSans-56" transform="translate(593.015625 0)"/>
     <use xlink:href="#DejaVuSans-4b" transform="translate(645.109375 0)"/>
     <use xlink:href="#DejaVuSans-52" transform="translate(708.484375 0)"/>
     <use xlink:href="#DejaVuSans-4f" transform="translate(769.671875 0)"/>
     <use xlink:href="#DejaVuSans-47" transform="translate(797.453125 0)"/>
    </g>
   </g>
   <g id="text_15">
    <!-- risk alert + SHAP review -->
    <g style="fill: #1f1f1f" transform="translate(393.467489 91.325803) scale(0.07 -0.07)">
     <defs>
      <path id="DejaVuSans-36" d="M 3425 4513
L 3425 3897
Q 3066 4069 2747 4153
Q 2428 4238 2131 4238
Q 1616 4238 1336 4038
Q 1056 3838 1056 3469
Q 1056 3159 1242 3001
Q 1428 2844 1947 2747
L 2328 2669
Q 3034 2534 3370 2195
Q 3706 1856 3706 1288
Q 3706 609 3251 259
Q 2797 -91 1919 -91
Q 1588 -91 1214 -16
Q 841 59 441 206
L 441 856
Q 825 641 1194 531
Q 1563 422 1919 422
Q 2459 422 2753 634
Q 3047 847 3047 1241
Q 3047 1584 2836 1778
Q 2625 1972 2144 2069
L 1759 2144
Q 1053 2284 737 2584
Q 422 2884 422 3419
Q 422 4038 858 4394
Q 1294 4750 2059 4750
Q 2388 4750 2728 4690
Q 3069 4631 3425 4513
z
" transform="scale(0.015625)"/>
      <path id="DejaVuSans-2b" d="M 628 4666
L 1259 4666
L 1259 2753
L 3553 2753
L 3553 4666
L 4184 4666
L 4184 0
L 3553 0
L 3553 2222
L 1259 2222
L 1259 0
L 628 0
L 628 4666
z
" transform="scale(0.015625)"/>
      <path id="DejaVuSans-33" d="M 1259 4147
L 1259 2394
L 2053 2394
Q 2494 2394 2734 2622
Q 2975 2850 2975 3272
Q 2975 3691 2734 3919
Q 2494 4147 2053 4147
L 1259 4147
z
M 628 4666
L 2053 4666
Q 2838 4666 3239 4311
Q 3641 3956 3641 3272
Q 3641 2581 3239 2228
Q 2838 1875 2053 1875
L 1259 1875
L 1259 0
L 628 0
L 628 4666
z
" transform="scale(0.015625)"/>
     </defs>
     <use xlink:href="#DejaVuSans-55"/>
     <use xlink:href="#DejaVuSans-4c" transform="translate(41.109375 0)"/>
     <use xlink:href="#DejaVuSans-56" transform="translate(68.890625 0)"/>
     <use xlink:href="#DejaVuSans-4e" transform="translate(120.984375 0)"/>
     <use xlink:href="#DejaVuSans-3" transform="translate(178.890625 0)"/>
     <use xlink:href="#DejaVuSans-44" transform="translate(210.671875 0)"/>
     <use xlink:href="#DejaVuSans-4f" transform="translate(271.953125 0)"/>
     <use xlink:href="#DejaVuSans-48" transform="translate(299.734375 0)"/>
     <use xlink:href="#DejaVuSans-55" transform="translate(361.265625 0)"/>
     <use xlink:href="#DejaVuSans-57" transform="translate(402.375 0)"/>
     <use xlink:href="#DejaVuSans-3" transform="translate(441.578125 0)"/>
     <use xlink:href="#DejaVuSans-e" transform="translate(473.359375 0)"/>
     <use xlink:href="#DejaVuSans-3" transform="translate(557.15625 0)"/>
     <use xlink:href="#DejaVuSans-36" transform="translate(588.9375 0)"/>
     <use xlink:href="#DejaVuSans-2b" transform="translate(652.421875 0)"/>
     <use xlink:href="#DejaVuSans-24" transform="translate(727.625 0)"/>
     <use xlink:href="#DejaVuSans-33" transform="translate(796.03125 0)"/>
     <use xlink:href="#DejaVuSans-3" transform="translate(856.328125 0)"/>
     <use xlink:href="#DejaVuSans-55" transform="translate(888.109375 0)"/>
     <use xlink:href="#DejaVuSans-48" transform="translate(927.015625 0)"/>
     <use xlink:href="#DejaVuSans-59" transform="translate(988.546875 0)"/>
     <use xlink:href="#DejaVuSans-4c" transform="translate(1047.734375 0)"/>
     <use xlink:href="#DejaVuSans-48" transform="translate(1075.515625 0)"/>
     <use xlink:href="#DejaVuSans-5a" transform="translate(1137.046875 0)"/>
    </g>
   </g>
   <g id="text_16">
    <!-- validation only -->
    <g style="fill: #6a4c93" transform="translate(405.178286 106.418762) scale(0.074 -0.074)">
     <use xlink:href="#DejaVuSans-Bold-59"/>
     <use xlink:href="#DejaVuSans-Bold-44" transform="translate(65.1875 0)"/>
     <use xlink:href="#DejaVuSans-Bold-4f" transform="translate(132.671875 0)"/>
     <use xlink:href="#DejaVuSans-Bold-4c" transform="translate(166.953125 0)"/>
     <use xlink:href="#DejaVuSans-Bold-47" transform="translate(201.234375 0)"/>
     <use xlink:href="#DejaVuSans-Bold-44" transform="translate(272.8125 0)"/>
     <use xlink:href="#DejaVuSans-Bold-57" transform="translate(340.296875 0)"/>
     <use xlink:href="#DejaVuSans-Bold-4c" transform="translate(388.09375 0)"/>
     <use xlink:href="#DejaVuSans-Bold-52" transform="translate(422.375 0)"/>
     <use xlink:href="#DejaVuSans-Bold-51" transform="translate(491.078125 0)"/>
     <use xlink:href="#DejaVuSans-Bold-3" transform="translate(562.265625 0)"/>
     <use xlink:href="#DejaVuSans-Bold-52" transform="translate(597.078125 0)"/>
     <use xlink:href="#DejaVuSans-Bold-51" transform="translate(665.78125 0)"/>
     <use xlink:href="#DejaVuSans-Bold-4f" transform="translate(736.96875 0)"/>
     <use xlink:href="#DejaVuSans-Bold-5c" transform="translate(771.25 0)"/>
    </g>
   </g>
   <g id="text_17">
    <!-- OSM + PLUTO 2026: retrospective context only -->
    <g style="fill: #2f2f2f" transform="translate(149.528603 153.164242) scale(0.078 -0.078)">
     <defs>
      <path id="DejaVuSans-Bold-32" d="M 2719 3878
Q 2169 3878 1866 3472
Q 1563 3066 1563 2328
Q 1563 1594 1866 1187
Q 2169 781 2719 781
Q 3272 781 3575 1187
Q 3878 1594 3878 2328
Q 3878 3066 3575 3472
Q 3272 3878 2719 3878
z
M 2719 4750
Q 3844 4750 4481 4106
Q 5119 3463 5119 2328
Q 5119 1197 4481 553
Q 3844 -91 2719 -91
Q 1597 -91 958 553
Q 319 1197 319 2328
Q 319 3463 958 4106
Q 1597 4750 2719 4750
z
" transform="scale(0.015625)"/>
      <path id="DejaVuSans-Bold-36" d="M 3834 4519
L 3834 3531
Q 3450 3703 3084 3790
Q 2719 3878 2394 3878
Q 1963 3878 1756 3759
Q 1550 3641 1550 3391
Q 1550 3203 1689 3098
Q 1828 2994 2194 2919
L 2706 2816
Q 3484 2659 3812 2340
Q 4141 2022 4141 1434
Q 4141 663 3683 286
Q 3225 -91 2284 -91
Q 1841 -91 1394 -6
Q 947 78 500 244
L 500 1259
Q 947 1022 1364 901
Q 1781 781 2169 781
Q 2563 781 2772 912
Q 2981 1044 2981 1288
Q 2981 1506 2839 1625
Q 2697 1744 2272 1838
L 1806 1941
Q 1106 2091 782 2419
Q 459 2747 459 3303
Q 459 4000 909 4375
Q 1359 4750 2203 4750
Q 2588 4750 2994 4692
Q 3400 4634 3834 4519
z
" transform="scale(0.015625)"/>
      <path id="DejaVuSans-Bold-30" d="M 588 4666
L 2119 4666
L 3181 2169
L 4250 4666
L 5778 4666
L 5778 0
L 4641 0
L 4641 3413
L 3566 897
L 2803 897
L 1728 3413
L 1728 0
L 588 0
L 588 4666
z
" transform="scale(0.015625)"/>
      <path id="DejaVuSans-Bold-38" d="M 588 4666
L 1791 4666
L 1791 1869
Q 1791 1291 1980 1042
Q 2169 794 2597 794
Q 3028 794 3217 1042
Q 3406 1291 3406 1869
L 3406 4666
L 4609 4666
L 4609 1869
Q 4609 878 4112 393
Q 3616 -91 2597 -91
Q 1581 -91 1084 393
Q 588 878 588 1869
L 588 4666
z
" transform="scale(0.015625)"/>
      <path id="DejaVuSans-Bold-37" d="M 31 4666
L 4331 4666
L 4331 3756
L 2784 3756
L 2784 0
L 1581 0
L 1581 3756
L 31 3756
L 31 4666
z
" transform="scale(0.015625)"/>
      <path id="DejaVuSans-Bold-15" d="M 1844 884
L 3897 884
L 3897 0
L 506 0
L 506 884
L 2209 2388
Q 2438 2594 2547 2791
Q 2656 2988 2656 3200
Q 2656 3528 2436 3728
Q 2216 3928 1850 3928
Q 1569 3928 1234 3808
Q 900 3688 519 3450
L 519 4475
Q 925 4609 1322 4679
Q 1719 4750 2100 4750
Q 2938 4750 3402 4381
Q 3866 4013 3866 3353
Q 3866 2972 3669 2642
Q 3472 2313 2841 1759
L 1844 884
z
" transform="scale(0.015625)"/>
      <path id="DejaVuSans-Bold-13" d="M 2944 2338
Q 2944 3213 2780 3570
Q 2616 3928 2228 3928
Q 1841 3928 1675 3570
Q 1509 3213 1509 2338
Q 1509 1453 1675 1090
Q 1841 728 2228 728
Q 2613 728 2778 1090
Q 2944 1453 2944 2338
z
M 4147 2328
Q 4147 1169 3647 539
Q 3147 -91 2228 -91
Q 1306 -91 806 539
Q 306 1169 306 2328
Q 306 3491 806 4120
Q 1306 4750 2228 4750
Q 3147 4750 3647 4120
Q 4147 3491 4147 2328
z
" transform="scale(0.015625)"/>
      <path id="DejaVuSans-Bold-19" d="M 2316 2303
Q 2000 2303 1842 2098
Q 1684 1894 1684 1484
Q 1684 1075 1842 870
Q 2000 666 2316 666
Q 2634 666 2792 870
Q 2950 1075 2950 1484
Q 2950 1894 2792 2098
Q 2634 2303 2316 2303
z
M 3803 4544
L 3803 3681
Q 3506 3822 3243 3889
Q 2981 3956 2731 3956
Q 2194 3956 1894 3657
Q 1594 3359 1544 2772
Q 1750 2925 1990 3001
Q 2231 3078 2516 3078
Q 3231 3078 3670 2659
Q 4109 2241 4109 1563
Q 4109 813 3618 361
Q 3128 -91 2303 -91
Q 1394 -91 895 523
Q 397 1138 397 2266
Q 397 3422 980 4083
Q 1563 4744 2578 4744
Q 2900 4744 3203 4694
Q 3506 4644 3803 4544
z
" transform="scale(0.015625)"/>
      <path id="DejaVuSans-Bold-1d" d="M 716 3500
L 1844 3500
L 1844 2291
L 716 2291
L 716 3500
z
M 716 1209
L 1844 1209
L 1844 0
L 716 0
L 716 1209
z
" transform="scale(0.015625)"/>
      <path id="DejaVuSans-Bold-5b" d="M 1422 1791
L 159 3500
L 1344 3500
L 2059 2463
L 2784 3500
L 3969 3500
L 2706 1797
L 4031 0
L 2847 0
L 2059 1106
L 1281 0
L 97 0
L 1422 1791
z
" transform="scale(0.015625)"/>
     </defs>
     <use xlink:href="#DejaVuSans-Bold-32"/>
     <use xlink:href="#DejaVuSans-Bold-36" transform="translate(85.015625 0)"/>
     <use xlink:href="#DejaVuSans-Bold-30" transform="translate(157.03125 0)"/>
     <use xlink:href="#DejaVuSans-Bold-3" transform="translate(256.546875 0)"/>
     <use xlink:href="#DejaVuSans-Bold-e" transform="translate(291.359375 0)"/>
     <use xlink:href="#DejaVuSans-Bold-3" transform="translate(375.15625 0)"/>
     <use xlink:href="#DejaVuSans-Bold-33" transform="translate(409.96875 0)"/>
     <use xlink:href="#DejaVuSans-Bold-2f" transform="translate(483.265625 0)"/>
     <use xlink:href="#DejaVuSans-Bold-38" transform="translate(543.421875 0)"/>
     <use xlink:href="#DejaVuSans-Bold-37" transform="translate(624.625 0)"/>
     <use xlink:href="#DejaVuSans-Bold-32" transform="translate(692.84375 0)"/>
     <use xlink:href="#DejaVuSans-Bold-3" transform="translate(777.859375 0)"/>
     <use xlink:href="#DejaVuSans-Bold-15" transform="translate(812.671875 0)"/>
     <use xlink:href="#DejaVuSans-Bold-13" transform="translate(882.25 0)"/>
     <use xlink:href="#DejaVuSans-Bold-15" transform="translate(951.828125 0)"/>
     <use xlink:href="#DejaVuSans-Bold-19" transform="translate(1021.40625 0)"/>
     <use xlink:href="#DejaVuSans-Bold-1d" transform="translate(1090.984375 0)"/>
     <use xlink:href="#DejaVuSans-Bold-3" transform="translate(1130.96875 0)"/>
     <use xlink:href="#DejaVuSans-Bold-55" transform="translate(1165.78125 0)"/>
     <use xlink:href="#DejaVuSans-Bold-48" transform="translate(1215.09375 0)"/>
     <use xlink:href="#DejaVuSans-Bold-57" transform="translate(1282.921875 0)"/>
     <use xlink:href="#DejaVuSans-Bold-55" transform="translate(1330.71875 0)"/>
     <use xlink:href="#DejaVuSans-Bold-52" transform="translate(1380.03125 0)"/>
     <use xlink:href="#DejaVuSans-Bold-56" transform="translate(1448.734375 0)"/>
     <use xlink:href="#DejaVuSans-Bold-53" transform="translate(1508.25 0)"/>
     <use xlink:href="#DejaVuSans-Bold-48" transform="translate(1579.828125 0)"/>
     <use xlink:href="#DejaVuSans-Bold-46" transform="translate(1647.65625 0)"/>
     <use xlink:href="#DejaVuSans-Bold-57" transform="translate(1706.9375 0)"/>
     <use xlink:href="#DejaVuSans-Bold-4c" transform="translate(1754.734375 0)"/>
     <use xlink:href="#DejaVuSans-Bold-59" transform="translate(1789.015625 0)"/>
     <use xlink:href="#DejaVuSans-Bold-48" transform="translate(1854.203125 0)"/>
     <use xlink:href="#DejaVuSans-Bold-3" transform="translate(1922.03125 0)"/>
     <use xlink:href="#DejaVuSans-Bold-46" transform="translate(1956.84375 0)"/>
     <use xlink:href="#DejaVuSans-Bold-52" transform="translate(2016.125 0)"/>
     <use xlink:href="#DejaVuSans-Bold-51" transform="translate(2084.828125 0)"/>
     <use xlink:href="#DejaVuSans-Bold-57" transform="translate(2156.015625 0)"/>
     <use xlink:href="#DejaVuSans-Bold-48" transform="translate(2203.8125 0)"/>
     <use xlink:href="#DejaVuSans-Bold-5b" transform="translate(2271.640625 0)"/>
     <use xlink:href="#DejaVuSans-Bold-57" transform="translate(2336.140625 0)"/>
     <use xlink:href="#DejaVuSans-Bold-3" transform="translate(2383.9375 0)"/>
     <use xlink:href="#DejaVuSans-Bold-52" transform="translate(2418.75 0)"/>
     <use xlink:href="#DejaVuSans-Bold-51" transform="translate(2487.453125 0)"/>
     <use xlink:href="#DejaVuSans-Bold-4f" transform="translate(2558.640625 0)"/>
     <use xlink:href="#DejaVuSans-Bold-5c" transform="translate(2592.921875 0)"/>
    </g>
   </g>
   <g id="text_18">
    <!-- excluded from prospective alerts -->
    <g style="fill: #4a4a4a" transform="translate(195.575025 164.74106) scale(0.07 -0.07)">
     <defs>
      <path id="DejaVuSans-58" d="M 544 1381
L 544 3500
L 1119 3500
L 1119 1403
Q 1119 906 1312 657
Q 1506 409 1894 409
Q 2359 409 2629 706
Q 2900 1003 2900 1516
L 2900 3500
L 3475 3500
L 3475 0
L 2900 0
L 2900 538
Q 2691 219 2414 64
Q 2138 -91 1772 -91
Q 1169 -91 856 284
Q 544 659 544 1381
z
M 1991 3584
L 1991 3584
z
" transform="scale(0.015625)"/>
      <path id="DejaVuSans-49" d="M 2375 4863
L 2375 4384
L 1825 4384
Q 1516 4384 1395 4259
Q 1275 4134 1275 3809
L 1275 3500
L 2222 3500
L 2222 3053
L 1275 3053
L 1275 0
L 697 0
L 697 3053
L 147 3053
L 147 3500
L 697 3500
L 697 3744
Q 697 4328 969 4595
Q 1241 4863 1831 4863
L 2375 4863
z
" transform="scale(0.015625)"/>
      <path id="DejaVuSans-53" d="M 1159 525
L 1159 -1331
L 581 -1331
L 581 3500
L 1159 3500
L 1159 2969
Q 1341 3281 1617 3432
Q 1894 3584 2278 3584
Q 2916 3584 3314 3078
Q 3713 2572 3713 1747
Q 3713 922 3314 415
Q 2916 -91 2278 -91
Q 1894 -91 1617 61
Q 1341 213 1159 525
z
M 3116 1747
Q 3116 2381 2855 2742
Q 2594 3103 2138 3103
Q 1681 3103 1420 2742
Q 1159 2381 1159 1747
Q 1159 1113 1420 752
Q 1681 391 2138 391
Q 2594 391 2855 752
Q 3116 1113 3116 1747
z
" transform="scale(0.015625)"/>
     </defs>
     <use xlink:href="#DejaVuSans-48"/>
     <use xlink:href="#DejaVuSans-5b" transform="translate(59.78125 0)"/>
     <use xlink:href="#DejaVuSans-46" transform="translate(117.21875 0)"/>
     <use xlink:href="#DejaVuSans-4f" transform="translate(172.203125 0)"/>
     <use xlink:href="#DejaVuSans-58" transform="translate(199.984375 0)"/>
     <use xlink:href="#DejaVuSans-47" transform="translate(263.359375 0)"/>
     <use xlink:href="#DejaVuSans-48" transform="translate(326.84375 0)"/>
     <use xlink:href="#DejaVuSans-47" transform="translate(388.375 0)"/>
     <use xlink:href="#DejaVuSans-3" transform="translate(451.859375 0)"/>
     <use xlink:href="#DejaVuSans-49" transform="translate(483.640625 0)"/>
     <use xlink:href="#DejaVuSans-55" transform="translate(518.84375 0)"/>
     <use xlink:href="#DejaVuSans-52" transform="translate(557.75 0)"/>
     <use xlink:href="#DejaVuSans-50" transform="translate(618.9375 0)"/>
     <use xlink:href="#DejaVuSans-3" transform="translate(716.34375 0)"/>
     <use xlink:href="#DejaVuSans-53" transform="translate(748.125 0)"/>
     <use xlink:href="#DejaVuSans-55" transform="translate(811.609375 0)"/>
     <use xlink:href="#DejaVuSans-52" transform="translate(850.515625 0)"/>
     <use xlink:href="#DejaVuSans-56" transform="translate(911.703125 0)"/>
     <use xlink:href="#DejaVuSans-53" transform="translate(963.796875 0)"/>
     <use xlink:href="#DejaVuSans-48" transform="translate(1027.28125 0)"/>
     <use xlink:href="#DejaVuSans-46" transform="translate(1088.8125 0)"/>
     <use xlink:href="#DejaVuSans-57" transform="translate(1143.796875 0)"/>
     <use xlink:href="#DejaVuSans-4c" transform="translate(1183 0)"/>
     <use xlink:href="#DejaVuSans-59" transform="translate(1210.78125 0)"/>
     <use xlink:href="#DejaVuSans-48" transform="translate(1269.96875 0)"/>
     <use xlink:href="#DejaVuSans-3" transform="translate(1331.5 0)"/>
     <use xlink:href="#DejaVuSans-44" transform="translate(1363.28125 0)"/>
     <use xlink:href="#DejaVuSans-4f" transform="translate(1424.5625 0)"/>
     <use xlink:href="#DejaVuSans-48" transform="translate(1452.34375 0)"/>
     <use xlink:href="#DejaVuSans-55" transform="translate(1513.875 0)"/>
     <use xlink:href="#DejaVuSans-57" transform="translate(1554.984375 0)"/>
     <use xlink:href="#DejaVuSans-56" transform="translate(1594.1875 0)"/>
    </g>
   </g>
  </g>
 </g>
 <defs>
  <clipPath id="p7fab7ed902">
   <rect x="7.2" y="7.2" width="481.39896" height="175.8"/>
  </clipPath>
 </defs>
</svg>
